<?xml version="1.0" encoding="utf-8"?><svg xmlns="http://www.w3.org/2000/svg" xmlns:xlink="http://www.w3.org/1999/xlink"><symbol fill="none" viewBox="0 0 31 16" id="arrow-left" xmlns="http://www.w3.org/2000/svg"><path d="M.293 7.293a1 1 0 000 1.414l6.364 6.364a1 1 0 001.414-1.414L2.414 8l5.657-5.657A1 1 0 006.657.93L.293 7.293zM31 7H1v2h30V7z" fill="#064A9B"/></symbol><symbol fill="none" viewBox="0 0 31 16" id="arrow-right" xmlns="http://www.w3.org/2000/svg"><path d="M30.707 7.293a1 1 0 010 1.414l-6.364 6.364a1 1 0 01-1.414-1.414L28.586 8l-5.657-5.657A1 1 0 0124.343.93l6.364 6.364zM0 7h30v2H0V7z" fill="#064A9B"/></symbol><symbol viewBox="0 0 511.992 511.992" id="clock" xmlns="http://www.w3.org/2000/svg"><path d="M511.005 279.646c-4.597-46.238-25.254-89.829-58.168-122.744-28.128-28.127-62.556-46.202-98.782-54.239V77.255c14.796-3.681 25.794-17.074 25.794-32.993 0-18.748-15.252-34-34-34h-72c-18.748 0-34 15.252-34 34 0 15.918 10.998 29.311 25.793 32.993v25.479c-36.115 8.071-70.429 26.121-98.477 54.169a202.966 202.966 0 00-16.979 19.269 9.99 9.99 0 00-.758-.038H78.167c-5.522 0-10 4.477-10 10s4.478 10 10 10h58.412a200.467 200.467 0 00-17.744 38.436H10c-5.522 0-10 4.477-10 10s4.478 10 10 10h103.184a203.324 203.324 0 00-4.963 38.437H64c-5.522 0-10 4.477-10 10s4.478 10 10 10h44.54a203.025 203.025 0 006.244 38.437H50c-5.522 0-10 4.477-10 10s4.478 10 10 10h71.166c9.81 25.951 25.141 50.274 45.999 71.132 32.946 32.946 76.582 53.608 122.868 58.181 6.606.652 13.217.975 19.819.975 39.022 0 77.548-11.293 110.238-32.581 4.628-3.014 5.937-9.209 2.923-13.837s-9.209-5.937-13.837-2.923c-71.557 46.597-167.39 36.522-227.869-23.957-70.962-70.962-70.962-186.425 0-257.388 70.961-70.961 186.424-70.961 257.387 0 60.399 60.4 70.529 156.151 24.086 227.673-3.008 4.632-1.691 10.826 2.94 13.833 4.634 3.008 10.826 1.691 13.833-2.941 24.814-38.215 35.984-84.37 31.452-129.965zM259.849 44.263c0-7.72 6.28-14 14-14h72c7.72 0 14 6.28 14 14s-6.28 14-14 14h-72c-7.72 0-14-6.281-14-14zm25.793 55.033V78.263h48.413V99.26a203.755 203.755 0 00-48.413.036z"/><path d="M445.77 425.5c-2.64 0-5.21 1.07-7.069 2.93a10.034 10.034 0 00-2.931 7.07c0 2.63 1.061 5.21 2.931 7.07a10.013 10.013 0 007.069 2.93c2.63 0 5.2-1.06 7.07-2.93 1.86-1.86 2.93-4.44 2.93-7.07s-1.069-5.21-2.93-7.07a10.095 10.095 0 00-7.07-2.93zM310.001 144.609c-85.538 0-155.129 69.59-155.129 155.129s69.591 155.129 155.129 155.129 155.129-69.59 155.129-155.129-69.591-155.129-155.129-155.129zm0 290.258c-74.511 0-135.129-60.619-135.129-135.129s60.618-135.129 135.129-135.129S445.13 225.228 445.13 299.738s-60.618 135.129-135.129 135.129z"/><path d="M373.257 222.34l-49.53 49.529a30.885 30.885 0 00-13.726-3.205 30.882 30.882 0 00-13.726 3.205l-22.167-22.167c-3.906-3.905-10.236-3.905-14.143 0-3.905 3.905-3.905 10.237 0 14.142l22.167 22.167a30.871 30.871 0 00-3.205 13.726c0 17.134 13.939 31.074 31.074 31.074s31.074-13.94 31.074-31.074c0-4.925-1.157-9.584-3.205-13.726l48.076-48.076 1.453-1.453c3.905-3.905 3.905-10.237 0-14.142s-10.235-3.905-14.142 0zm-63.256 88.472c-6.106 0-11.074-4.968-11.074-11.074s4.968-11.074 11.074-11.074 11.074 4.968 11.074 11.074-4.968 11.074-11.074 11.074zM416.92 289.86h-9.265c-5.522 0-10 4.477-10 10s4.478 10 10 10h9.265c5.522 0 10-4.477 10-10s-4.478-10-10-10zm-204.574-.244h-9.264c-5.522 0-10 4.477-10 10s4.478 10 10 10h9.264c5.522 0 10-4.477 10-10s-4.478-10-10-10zm97.777-77.533c5.522 0 10-4.477 10-10v-9.264c0-5.523-4.478-10-10-10s-10 4.477-10 10v9.264c0 5.523 4.478 10 10 10zm-.244 175.31c-5.522 0-10 4.477-10 10v9.264c0 5.523 4.478 10 10 10s10-4.477 10-10v-9.264c0-5.523-4.478-10-10-10zM10 351.44c-2.63 0-5.21 1.07-7.07 2.93A10.076 10.076 0 000 361.44c0 2.64 1.069 5.21 2.93 7.07s4.44 2.93 7.07 2.93 5.21-1.07 7.069-2.93c1.86-1.86 2.931-4.44 2.931-7.07s-1.07-5.21-2.931-7.07A10.072 10.072 0 0010 351.44z"/></symbol><symbol viewBox="0 0 496 496" id="compass" xmlns="http://www.w3.org/2000/svg"><path d="M248 0C111.033 0 0 111.033 0 248s111.033 248 248 248 248-111.033 248-248C495.846 111.097 384.903.154 248 0zm0 480C119.87 480 16 376.13 16 248S119.87 16 248 16s232 103.87 232 232c-.145 128.07-103.93 231.854-232 232z"/><path d="M345.146 146.4a8 8 0 00-5.946 0L86.928 246.168a8 8 0 00-.312 14.744l102.784 45.68 45.688 102.792a8.001 8.001 0 007.312 4.752h.168a8 8 0 007.272-5.064L349.6 156.8a8 8 0 00-4.454-10.4zM241.968 385.464l-39.2-88.184a8.002 8.002 0 00-4.064-4.064l-88.176-39.2 217.376-85.92-85.936 217.368z"/></symbol><symbol viewBox="0 0 480 480" id="email" xmlns="http://www.w3.org/2000/svg"><path d="M240 0C107.453 0 0 107.453 0 240s107.453 240 240 240 240-107.453 240-240C479.852 107.516 372.484.148 240 0zm0 464C116.29 464 16 363.71 16 240S116.29 16 240 16s224 100.29 224 224c-.14 123.652-100.348 223.86-224 224zm0 0"/><path d="M352 144H128a8 8 0 00-8 8v176a8 8 0 008 8h224a8 8 0 008-8V152a8 8 0 00-8-8zm-21.602 16L240 237.465 149.602 160zM136 320V169.39l98.793 84.68a7.994 7.994 0 0010.398 0L344 169.39V320zm0 0"/></symbol><symbol viewBox="0 0 512 512" id="facebook" xmlns="http://www.w3.org/2000/svg"><path d="M512 256C512 114.6 397.4 0 256 0S0 114.6 0 256s114.6 256 256 256c1.5 0 3 0 4.5-.1V312.7h-55v-64.1h55v-47.2c0-54.7 33.4-84.5 82.2-84.5 23.4 0 43.5 1.7 49.3 2.5v57.2h-33.6c-26.5 0-31.7 12.6-31.7 31.1v40.8h63.5l-8.3 64.1h-55.2v189.5C433.7 471.4 512 372.9 512 256z"/></symbol><symbol viewBox="0 0 512 512" id="instagram" xmlns="http://www.w3.org/2000/svg"><path d="M305 256c0 27.063-21.938 49-49 49s-49-21.938-49-49 21.938-49 49-49 49 21.938 49 49zm0 0"/><path d="M370.594 169.305a45.546 45.546 0 00-10.996-16.903 45.514 45.514 0 00-16.903-10.996c-5.18-2.011-12.96-4.406-27.293-5.058-15.504-.707-20.152-.86-59.402-.86-39.254 0-43.902.149-59.402.856-14.332.656-22.118 3.05-27.293 5.062a45.483 45.483 0 00-16.903 10.996 45.572 45.572 0 00-11 16.903c-2.011 5.18-4.406 12.965-5.058 27.297-.707 15.5-.86 20.148-.86 59.402 0 39.25.153 43.898.86 59.402.652 14.332 3.047 22.114 5.058 27.293a45.563 45.563 0 0010.996 16.903 45.514 45.514 0 0016.903 10.996c5.18 2.015 12.965 4.41 27.297 5.062 15.5.707 20.144.856 59.398.856 39.258 0 43.906-.149 59.402-.856 14.332-.652 22.118-3.047 27.297-5.062a48.68 48.68 0 0027.899-27.899c2.011-5.18 4.406-12.96 5.062-27.293.707-15.504.856-20.152.856-59.402 0-39.254-.149-43.902-.856-59.402-.652-14.332-3.047-22.118-5.062-27.297zM256 331.485c-41.691 0-75.488-33.794-75.488-75.485s33.797-75.484 75.488-75.484c41.688 0 75.484 33.793 75.484 75.484S297.688 331.484 256 331.484zm78.469-136.313c-9.742 0-17.64-7.899-17.64-17.64s7.898-17.641 17.64-17.641 17.64 7.898 17.64 17.64c-.004 9.742-7.898 17.64-17.64 17.64zm0 0"/><path d="M256 0C114.637 0 0 114.637 0 256s114.637 256 256 256 256-114.637 256-256S397.363 0 256 0zm146.113 316.605c-.71 15.649-3.199 26.333-6.832 35.684a75.164 75.164 0 01-42.992 42.992c-9.348 3.633-20.035 6.117-35.68 6.832-15.675.715-20.683.887-60.605.887-39.926 0-44.93-.172-60.61-.887-15.644-.715-26.331-3.199-35.68-6.832a72.018 72.018 0 01-26.038-16.957 72.044 72.044 0 01-16.953-26.035c-3.633-9.348-6.121-20.035-6.832-35.68-.723-15.68-.891-20.687-.891-60.609s.168-44.93.887-60.605c.71-15.649 3.195-26.332 6.828-35.684a72.013 72.013 0 0116.96-26.035 72.003 72.003 0 0126.036-16.957c9.352-3.633 20.035-6.117 35.684-6.832C211.07 109.172 216.078 109 256 109s44.93.172 60.605.89c15.649.712 26.332 3.196 35.684 6.825a72.061 72.061 0 0126.04 16.96 72.027 72.027 0 0116.952 26.036c3.637 9.352 6.121 20.035 6.836 35.684.715 15.675.883 20.683.883 60.605s-.168 44.93-.887 60.605zm0 0"/></symbol><symbol fill="none" viewBox="0 0 241 49" id="logo" xmlns="http://www.w3.org/2000/svg"><path d="M119 15.5L104.5 0H116l14.5 15.5L116 32h-11.5L119 15.5z" fill="#4E66AC"/><path d="M130.5 32L145 16.5h-11.5L119 32l14.5 16.5H145L130.5 32z" fill="#D54D51"/><path d="M13.121 24.5h4.371L15.547 7.59h-5.262L.863 24.5H5.41l1.91-3.715h5.52l.281 3.715zm-1.02-13.137h.094l.47 6.328H8.878l3.223-6.328zM27.125 24.5l2.859-13.453h4.863l.739-3.457h-14.04l-.738 3.457h4.864L22.823 24.5h4.3zm21.912 0l3.598-16.91h-12.41l-2.508 9.726c-.55 2.133-1.406 3.586-2.86 3.586-.363 0-.667-.058-.843-.093l-.797 3.691c.223.07.773.164 1.477.164 4.054 0 5.718-2.59 6.89-7.031l1.735-6.586h4.277L44.735 24.5h4.301zm15.327 0h4.371L66.79 7.59h-5.262L52.105 24.5h4.547l1.91-3.715h5.52l.281 3.715zm-1.02-13.137h.094l.469 6.328H60.12l3.222-6.328zm23.8 13.137L90.74 7.59h-4.394l-1.43 6.656h-6.55l1.43-6.656H75.4L71.803 24.5h4.395l1.464-6.844h6.54L82.747 24.5h4.395zm12.584 0l2.86-13.453h4.863l.738-3.457h-14.04l-.738 3.457h4.863L95.427 24.5h4.3z" fill="#211602"/><path d="M13.121 24.5l-.2.015.015.185h.185v-.2zm4.371 0v.2h.224l-.025-.223-.199.023zM15.547 7.59l.199-.023-.02-.177h-.18v.2zm-5.262 0v-.2h-.117l-.058.103.175.097zM.863 24.5l-.174-.097-.166.297h.34v-.2zm4.547 0v.2h.122l.056-.108-.178-.092zm1.91-3.715v-.2h-.122l-.056.109.178.091zm5.52 0l.2-.015-.015-.185h-.185v.2zm-.738-9.422v-.2h-.123l-.056.11.179.09zm.093 0l.2-.014-.014-.186h-.186v.2zm.47 6.328v.2h.214l-.015-.214-.2.014zm-3.786 0l-.178-.09-.148.29h.326v-.2zM13.12 24.7h4.371v-.4h-4.37v.4zm4.57-.223l-1.945-16.91-.398.046 1.946 16.91.397-.046zM15.547 7.39h-5.262v.4h5.262v-.4zm-5.437.103L.69 24.402l.349.194 9.422-16.91-.35-.195zM.863 24.7H5.41v-.4H.863v.4zm4.725-.108l1.91-3.715-.356-.183-1.91 3.715.356.183zm1.732-3.607h5.52v-.4H7.32v.4zm5.32-.185l.282 3.715.398-.03-.28-3.715-.4.03zm-.538-9.237h.093v-.4h-.093v.4zm-.106-.185l.469 6.328.399-.03-.47-6.327-.398.03zm.668 6.113H8.88v.4h3.785v-.4zm-3.607.291l3.223-6.328-.357-.181L8.701 17.6l.356.181zM27.124 24.5v.2h.162l.033-.158-.195-.042zm2.859-13.453v-.2h-.162l-.034.158.196.042zm4.863 0v.2h.162l.034-.158-.196-.042zm.739-3.457l.195.042.052-.242h-.248v.2zm-14.04 0v-.2h-.161l-.034.158.195.042zm-.738 3.457l-.195-.042-.052.242h.247v-.2zm4.864 0l.195.041.051-.241h-.247v.2zM22.823 24.5l-.196-.041-.051.241h.247v-.2zm4.496.042l2.86-13.454-.392-.083-2.859 13.453.391.084zm2.664-13.295h4.863v-.4h-4.863v.4zm5.059-.158l.738-3.457-.391-.084-.738 3.457.39.084zm.542-3.7H21.545v.4h14.04v-.4zm-14.234.16l-.738 3.456.39.084.74-3.457-.392-.084zm-.543 3.698h4.864v-.4h-4.864v.4zm4.668-.242L22.627 24.46l.392.082 2.847-13.453-.391-.082zM22.823 24.7h4.3v-.4h-4.3v.4zm26.213-.2v.2h.162l.034-.158-.196-.042zm3.598-16.91l.196.041.05-.241h-.246v.2zm-12.41 0v-.2h-.155l-.039.15.194.05zm-2.508 9.726l.194.05-.194-.05zm-3.703 3.493l.039-.197-.193-.038-.042.192.196.043zm-.797 3.691l-.196-.042-.038.178.174.055.06-.191zm8.367-6.867l.194.05-.194-.05zm1.735-6.586v-.2h-.155l-.039.149.194.05zm4.277 0l.196.041.05-.241h-.246v.2zM44.735 24.5l-.195-.042-.051.242h.247v-.2zm4.497.042l3.598-16.91-.392-.084-3.597 16.91.39.084zM52.634 7.39h-12.41v.4h12.41v-.4zm-12.604.15l-2.508 9.727.388.1 2.507-9.727-.387-.1zm-2.508 9.726c-.273 1.058-.616 1.925-1.058 2.525-.438.593-.96.911-1.607.911v.4c.806 0 1.437-.407 1.929-1.074.486-.66.846-1.586 1.124-2.662l-.388-.1zm-2.665 3.436a3.99 3.99 0 01-.805-.09l-.078.393c.178.035.499.097.883.097v-.4zm-1.04.064l-.797 3.692.391.084.797-3.691-.39-.085zm-.661 3.925c.248.078.82.173 1.537.173v-.4c-.69 0-1.22-.092-1.417-.155l-.12.382zm1.537.173c2.077 0 3.563-.666 4.675-1.917 1.102-1.24 1.82-3.035 2.408-5.263l-.386-.102c-.584 2.213-1.284 3.933-2.32 5.1-1.027 1.154-2.4 1.782-4.377 1.782v.4zm7.084-7.18l1.734-6.586-.387-.102-1.734 6.586.386.102zm1.54-6.437h4.278v-.4h-4.277v.4zm4.082-.242l-2.86 13.453.392.084 2.86-13.454-.392-.083zM44.736 24.7h4.3v-.4h-4.3v.4zm19.627-.2l-.2.015.014.185h.186v-.2zm4.371 0v.2h.224l-.025-.223-.199.023zM66.79 7.59l.198-.023-.02-.177h-.178v.2zm-5.262 0v-.2h-.117l-.058.103.175.097zM52.105 24.5l-.175-.097-.165.297h.34v-.2zm4.547 0v.2h.122l.056-.108-.178-.092zm1.91-3.715v-.2h-.122l-.056.109.178.091zm5.52 0l.2-.015-.015-.185h-.185v.2zm-.739-9.422v-.2h-.122l-.056.11.178.09zm.094 0l.2-.014-.014-.186h-.186v.2zm.469 6.328v.2h.215l-.016-.214-.2.014zm-3.785 0l-.178-.09-.148.29h.326v-.2zm4.242 7.009h4.371v-.4h-4.371v.4zm4.57-.223l-1.946-16.91-.397.046 1.945 16.91.398-.046zM66.789 7.39h-5.262v.4h5.262v-.4zm-5.437.103l-9.422 16.91.35.194 9.422-16.91-.35-.195zM52.105 24.7h4.547v-.4h-4.547v.4zm4.725-.108l1.91-3.715-.356-.183-1.91 3.715.356.183zm1.732-3.607h5.52v-.4h-5.52v.4zm5.32-.185l.282 3.715.398-.03-.28-3.715-.4.03zm-.539-9.237h.094v-.4h-.094v.4zm-.105-.185l.468 6.328.4-.03-.47-6.327-.398.03zm.668 6.113H60.12v.4h3.785v-.4zm-3.607.291l3.223-6.328-.357-.181-3.222 6.328.356.181zM87.143 24.5v.2h.162l.033-.158-.195-.042zM90.74 7.59l.196.041.051-.241h-.246v.2zm-4.394 0v-.2h-.162l-.034.158.196.042zm-1.43 6.656v.2h.162l.034-.158-.196-.042zm-6.55 0l-.196-.042-.052.242h.248v-.2zm1.43-6.656l.195.042.052-.242h-.248v.2zm-4.395 0v-.2h-.162l-.034.158.196.042zM71.803 24.5l-.196-.042-.051.242h.247v-.2zm4.395 0v.2h.161l.034-.158-.195-.042zm1.464-6.844v-.2h-.161l-.034.158.195.042zm6.54 0l.195.042.051-.242h-.247v.2zM82.747 24.5l-.195-.041-.052.241h.247v-.2zm4.59.042l3.598-16.91-.391-.084-3.598 16.91.391.084zM90.741 7.39h-4.395v.4h4.394v-.4zm-4.59.158l-1.43 6.656.39.084 1.43-6.656-.39-.084zm-1.235 6.498h-6.55v.4h6.55v-.4zm-6.355.242l1.43-6.656-.391-.084-1.43 6.656.391.084zm1.234-6.898h-4.394v.4h4.394v-.4zm-4.59.158l-3.598 16.91.392.084 3.597-16.91-.391-.084zM71.803 24.7h4.395v-.4h-4.395v.4zm4.59-.158l1.465-6.844-.391-.084-1.465 6.844.391.084zm1.27-6.686H84.2v-.4h-6.539v.4zm6.343-.241l-1.453 6.844.39.082 1.454-6.843-.391-.083zM82.748 24.7h4.395v-.4h-4.395v.4zm16.98-.2v.2h.161l.034-.158-.196-.042zm2.859-13.453v-.2h-.162l-.034.158.196.042zm4.863 0v.2h.162l.034-.158-.196-.042zm.738-3.457l.196.042.051-.242h-.247v.2zm-14.039 0v-.2h-.162l-.033.158.195.042zm-.738 3.457l-.196-.042-.051.242h.247v-.2zm4.863 0l.196.041.051-.241h-.247v.2zM95.427 24.5l-.196-.041-.051.241h.247v-.2zm4.496.042l2.859-13.454-.391-.083-2.86 13.453.392.084zm2.664-13.295h4.863v-.4h-4.863v.4zm5.059-.158l.738-3.457-.391-.084-.739 3.457.392.084zm.542-3.7H94.149v.4h14.039v-.4zm-14.234.16l-.739 3.456.391.084.739-3.457-.391-.084zm-.543 3.698h4.863v-.4h-4.863v.4zm4.668-.242L95.23 24.46l.391.082 2.848-13.453-.391-.082zM95.427 24.7h4.3v-.4h-4.3v.4z" fill="#000"/><path d="M152.57 31.082h4.184c.023-.164.047-.387.047-.656-.059-3.598-2.93-6.13-6.914-6.13-5.801 0-9.598 4.138-9.598 10.337 0 4.347 2.895 7.16 7.359 7.16 4.29 0 7.594-2.566 8.25-6.398h-4.183c-.563 1.757-2.004 2.847-3.797 2.847-1.992 0-3.211-1.465-3.211-3.855 0-3.832 1.969-6.575 4.77-6.575 1.722 0 3.046 1.184 3.093 2.836.012.293.012.364 0 .434zm16.834 6.961h-7.277l.738-3.457h6.844l.668-3.164h-6.844l.715-3.375h7.277l.738-3.457h-11.578l-3.597 16.91h11.589l.727-3.457zm5.607-13.453l-3.586 16.91h4.301l1.055-4.957h2.801c4.628 0 7.64-2.625 7.64-6.855 0-3.07-2.226-5.098-5.906-5.098h-6.305zm3.598 3.305h1.816c1.571 0 2.473.726 2.473 2.18 0 1.898-1.301 3.222-3.316 3.222h-2.122l1.149-5.402zM196.04 41.5c3.715 0 6.364-2.25 6.364-5.39 0-1.735-1.278-3.036-3.082-3.422l.011-.083c2.285-.457 3.914-2.144 3.914-4.382 0-2.075-1.734-3.633-4.933-3.633h-7.406L187.31 41.5h8.73zm-1.523-14.121h2.273c1.418 0 2.157.633 2.157 1.629 0 1.324-1.125 2.285-2.825 2.285h-2.425l.82-3.914zm-2.344 11.074l.926-4.383h2.59c1.594 0 2.414.692 2.414 1.84 0 1.524-1.195 2.543-3.047 2.543h-2.883zm22.705 3.047h4.207l3.598-16.91h-4.114l-9.105 10.465h-.223l2.239-10.465h-4.208l-3.597 16.91h4.125l9.094-10.453h.222L214.878 41.5zm20.806-10.418h4.184c.023-.164.047-.387.047-.656-.059-3.598-2.93-6.13-6.914-6.13-5.801 0-9.598 4.138-9.598 10.337 0 4.347 2.895 7.16 7.359 7.16 4.29 0 7.594-2.566 8.25-6.398h-4.183c-.563 1.757-2.004 2.847-3.797 2.847-1.992 0-3.211-1.465-3.211-3.855 0-3.832 1.969-6.575 4.77-6.575 1.722 0 3.046 1.184 3.093 2.836.012.293.012.364 0 .434z" fill="#211602"/><path d="M152.57 31.082l-.197-.033-.039.233h.236v-.2zm4.184 0v.2h.173l.025-.172-.198-.028zm.047-.656h.2v-.003l-.2.003zm-.903 4.969l.198.033.04-.233h-.238v.2zm-4.183 0v-.2h-.146l-.045.139.191.06zm.855-4.747l-.2.006v.002l.2-.008zm0 .634h4.184v-.4h-4.184v.4zm4.382-.172c.024-.17.049-.403.049-.684h-.4c0 .258-.023.47-.045.628l.396.056zm.049-.688c-.061-3.726-3.041-6.325-7.114-6.325v.4c3.895 0 6.657 2.463 6.714 5.932l.4-.006zm-7.114-6.325c-2.951 0-5.405 1.053-7.121 2.907-1.715 1.853-2.677 4.489-2.677 7.629h.4c0-3.06.936-5.592 2.57-7.357 1.633-1.764 3.977-2.78 6.828-2.78v-.4zm-9.798 10.536c0 2.22.74 4.064 2.066 5.354 1.325 1.289 3.219 2.006 5.493 2.006v-.4c-2.19 0-3.976-.69-5.214-1.893-1.238-1.204-1.945-2.939-1.945-5.067h-.4zm7.559 7.36c4.372 0 7.773-2.623 8.448-6.565l-.395-.067c-.637 3.722-3.846 6.232-8.053 6.232v.4zm8.25-6.799h-4.183v.4h4.183v-.4zm-4.374.14c-.537 1.679-1.905 2.708-3.606 2.708v.4c1.884 0 3.4-1.15 3.987-2.986l-.381-.122zm-3.606 2.708c-.943 0-1.687-.344-2.199-.959-.515-.62-.812-1.533-.812-2.696h-.4c0 1.227.313 2.24.905 2.952.595.715 1.457 1.103 2.506 1.103v-.4zm-3.011-3.655c0-1.884.484-3.484 1.297-4.607.809-1.12 1.945-1.768 3.273-1.768v-.4c-1.473 0-2.723.724-3.598 1.933-.872 1.206-1.372 2.894-1.372 4.842h.4zm4.57-6.375c1.626 0 2.85 1.11 2.893 2.642l.4-.011c-.05-1.773-1.475-3.03-3.293-3.03v.4zm2.893 2.644c.013.302.011.348.003.393l.395.066c.015-.095.014-.19.002-.475l-.4.016zm17.034 7.387l.196.041.05-.241h-.246v.2zm-7.277 0l-.196-.042-.052.242h.248v-.2zm.738-3.457v-.2h-.162l-.034.158.196.042zm6.844 0v.2h.162l.033-.159-.195-.041zm.668-3.164l.195.041.051-.241h-.246v.2zm-6.844 0l-.196-.042-.051.242h.247v-.2zm.715-3.375v-.2h-.162l-.034.158.196.042zm7.277 0v.2h.162l.034-.158-.196-.042zm.738-3.457l.196.042.052-.242h-.248v.2zm-11.578 0v-.2h-.162l-.033.158.195.042zm-3.597 16.91l-.196-.042-.051.242h.247v-.2zm11.589 0v.2h.163l.033-.159-.196-.041zm.727-3.657h-7.277v.4h7.277v-.4zm-7.082.242l.739-3.457-.392-.084-.738 3.457.391.084zm.543-3.3h6.844v-.4h-6.844v.4zm7.039-.158l.668-3.164-.391-.082-.668 3.164.391.082zm.473-3.405h-6.844v.4h6.844v-.4zm-6.648.241l.714-3.375-.391-.083-.715 3.375.392.083zm.519-3.216h7.277v-.4h-7.277v.4zm7.473-.158l.738-3.457-.391-.084-.738 3.457.391.084zm.542-3.7h-11.578v.4h11.578v-.4zm-11.773.16l-3.598 16.91.391.083 3.598-16.91-.391-.084zM157.088 41.7h11.589v-.4h-11.589v.4zm11.785-.159l.727-3.457-.392-.082-.726 3.457.391.082zm6.138-16.951v-.2h-.162l-.033.158.195.042zm-3.586 16.91l-.195-.041-.052.241h.247v-.2zm4.301 0v.2h.162l.034-.158-.196-.042zm1.055-4.957v-.2h-.162l-.034.158.196.042zm1.828-8.648v-.2h-.162l-.034.158.196.041zm-1.149 5.402l-.195-.042-.052.242h.247v-.2zm-2.644-8.749l-3.586 16.91.391.084 3.586-16.91-.391-.084zM171.425 41.7h4.301v-.4h-4.301v.4zm4.497-.158l1.054-4.957-.391-.084-1.055 4.957.392.084zm.859-4.799h2.801v-.4h-2.801v.4zm2.801 0c2.351 0 4.312-.667 5.689-1.892 1.379-1.227 2.151-2.998 2.151-5.163h-.4c0 2.064-.733 3.721-2.017 4.864-1.287 1.145-3.146 1.791-5.423 1.791v.4zm7.84-7.056c0-1.586-.577-2.918-1.641-3.85-1.062-.93-2.59-1.447-4.465-1.447v.4c1.804 0 3.23.497 4.201 1.348.969.848 1.505 2.066 1.505 3.55h.4zm-6.106-5.297h-6.305v.4h6.305v-.4zm-2.707 3.704h1.816v-.4h-1.816v.4zm1.816 0c.758 0 1.322.176 1.695.497.367.316.578.8.578 1.483h.4c0-.77-.241-1.376-.717-1.786-.471-.406-1.143-.593-1.956-.593v.4zm2.273 1.98c0 .903-.308 1.655-.843 2.181-.534.526-1.31.842-2.273.842v.4c1.052 0 1.934-.347 2.554-.957.62-.61.962-1.47.962-2.466h-.4zm-3.116 3.023h-2.122v.4h2.122v-.4zm-1.926.242l1.149-5.403-.392-.083-1.148 5.402.391.084zm21.666-.651l-.198-.029-.027.185.183.04.042-.197zm.011-.083l-.039-.196-.139.028-.02.14.198.029zm-8.425-8.015v-.2h-.162l-.034.158.196.042zM187.31 41.5l-.196-.042-.051.242h.247v-.2zm7.207-14.121v-.2h-.163l-.033.159.196.04zm-.82 3.914l-.196-.041-.051.241h.247v-.2zm-1.524 7.16l-.196-.041-.051.241h.247v-.2zm.926-4.383v-.2h-.162l-.034.159.196.041zm2.941 7.63c3.793 0 6.564-2.31 6.564-5.59h-.4c0 3-2.527 5.19-6.164 5.19v.4zm6.564-5.59c0-1.85-1.366-3.216-3.241-3.618l-.083.391c1.735.372 2.924 1.608 2.924 3.226h.4zm-3.084-3.394l.011-.082-.396-.057-.011.082.396.057zm-.147.086c2.36-.472 4.074-2.228 4.074-4.58h-.4c0 2.126-1.543 3.745-3.753 4.187l.079.393zm4.074-4.58a3.394 3.394 0 00-1.344-2.751c-.878-.684-2.159-1.081-3.789-1.081v.4c1.569 0 2.755.382 3.543.996.785.61 1.19 1.46 1.19 2.437h.4zm-5.133-3.832h-7.406v.4h7.406v-.4zm-7.602.158l-3.598 16.91.391.084 3.598-16.91-.391-.084zM187.31 41.7h8.73v-.4h-8.73v.4zm7.207-14.121h2.273v-.4h-2.273v.4zm2.273 0c.683 0 1.173.153 1.487.398.308.24.47.587.47 1.03h.4c0-.552-.208-1.02-.624-1.345-.409-.32-.997-.483-1.733-.483v.4zm1.957 1.429c0 .6-.254 1.116-.702 1.485-.451.37-1.11.6-1.923.6v.4c.887 0 1.64-.25 2.177-.691a2.278 2.278 0 00.848-1.794h-.4zm-2.625 2.085h-2.425v.4h2.425v-.4zm-2.23.241l.821-3.914-.392-.082-.82 3.914.391.082zm-1.523 7.16l.926-4.382-.392-.083-.926 4.383.392.083zm.73-4.224h2.59v-.4h-2.59v.4zm2.59 0c.772 0 1.325.168 1.681.447.349.273.533.671.533 1.193h.4c0-.626-.227-1.148-.686-1.508-.453-.354-1.106-.532-1.928-.532v.4zm2.214 1.64c0 .706-.275 1.284-.758 1.69-.486.408-1.199.653-2.089.653v.4c.961 0 1.772-.265 2.346-.747.578-.485.901-1.178.901-1.996h-.4zm-2.847 2.343h-2.883v.4h2.883v-.4zm19.822 3.247l-.196-.042-.051.242h.247v-.2zm4.207 0v.2h.162l.034-.158-.196-.042zm3.598-16.91l.195.041.052-.241h-.247v.2zm-4.114 0v-.2h-.091l-.06.069.151.13zm-9.105 10.465v.2h.091l.06-.069-.151-.131zm-.223 0l-.195-.042-.052.242h.247v-.2zm2.239-10.465l.195.042.052-.242h-.247v.2zm-4.208 0v-.2h-.161l-.034.158.195.042zm-3.597 16.91l-.196-.042-.051.242h.247v-.2zm4.125 0v.2h.091l.06-.069-.151-.131zm9.094-10.453v-.2h-.092l-.059.069.151.13zm.222 0l.196.042.052-.242h-.248v.2zM214.878 41.7h4.207v-.4h-4.207v.4zm4.403-.158l3.597-16.91-.391-.084-3.598 16.91.392.084zm3.402-17.152h-4.114v.4h4.114v-.4zm-4.265.069l-9.105 10.464.302.263 9.105-10.465-.302-.262zm-8.954 10.396h-.223v.4h.223v-.4zm-.027.242l2.238-10.465-.391-.084-2.238 10.465.391.084zm2.043-10.707h-4.208v.4h4.208v-.4zm-4.403.158l-3.598 16.91.391.084 3.598-16.91-.391-.084zM203.675 41.7h4.125v-.4h-4.125v.4zm4.276-.069l9.093-10.453-.301-.262-9.094 10.453.302.262zm8.943-10.384h.222v-.4h-.222v.4zm.027-.242l-2.239 10.453.392.084 2.238-10.453-.391-.084zm18.763.077l-.197-.033-.039.233h.236v-.2zm4.184 0v.2h.173l.025-.172-.198-.028zm.047-.656h.2v-.003l-.2.003zm-.903 4.969l.198.033.04-.233h-.238v.2zm-4.183 0v-.2h-.146l-.045.139.191.06zm.855-4.747l-.2.006.001.002.199-.008zm0 .634h4.184v-.4h-4.184v.4zm4.382-.172c.024-.17.049-.403.049-.684h-.4c0 .258-.023.47-.045.628l.396.056zm.049-.688c-.061-3.726-3.041-6.325-7.114-6.325v.4c3.895 0 6.657 2.463 6.714 5.932l.4-.006zm-7.114-6.325c-2.95 0-5.405 1.053-7.121 2.907-1.715 1.853-2.677 4.489-2.677 7.629h.4c0-3.06.936-5.592 2.57-7.357 1.633-1.764 3.977-2.78 6.828-2.78v-.4zm-9.798 10.536c0 2.22.74 4.064 2.066 5.354 1.326 1.289 3.219 2.006 5.493 2.006v-.4c-2.19 0-3.976-.69-5.214-1.893-1.237-1.204-1.945-2.939-1.945-5.067h-.4zm7.559 7.36c4.372 0 7.773-2.623 8.448-6.565l-.395-.067c-.637 3.722-3.846 6.232-8.053 6.232v.4zm8.25-6.799h-4.183v.4h4.183v-.4zm-4.374.14c-.537 1.679-1.905 2.708-3.606 2.708v.4c1.885 0 3.4-1.15 3.987-2.986l-.381-.122zm-3.606 2.708c-.943 0-1.687-.344-2.199-.959-.515-.62-.812-1.533-.812-2.696h-.4c0 1.227.313 2.24.905 2.952.595.715 1.457 1.103 2.506 1.103v-.4zm-3.011-3.655c0-1.884.484-3.484 1.297-4.607.81-1.12 1.945-1.768 3.273-1.768v-.4c-1.473 0-2.723.724-3.597 1.933-.873 1.206-1.373 2.894-1.373 4.842h.4zm4.57-6.375c1.627 0 2.85 1.11 2.893 2.642l.4-.011c-.05-1.773-1.475-3.03-3.293-3.03v.4zm2.894 2.644c.012.302.01.348.002.393l.395.066c.016-.095.014-.19.002-.475l-.399.016z" fill="#000"/></symbol><symbol viewBox="0 0 241 49" id="logo_footer" xmlns="http://www.w3.org/2000/svg"><path d="M119 15.5L104.5 0H116l14.5 15.5L116 32h-11.5L119 15.5zM130.5 32L145 16.5h-11.5L119 32l14.5 16.5H145L130.5 32z"/><path d="M13.121 24.5h4.371L15.547 7.59h-5.262L.863 24.5H5.41l1.91-3.715h5.52l.281 3.715zm-1.02-13.137h.094l.47 6.328H8.878l3.223-6.328zM27.125 24.5l2.859-13.453h4.863l.739-3.457h-14.04l-.738 3.457h4.864L22.823 24.5h4.3zm21.912 0l3.598-16.91h-12.41l-2.508 9.726c-.55 2.133-1.406 3.586-2.86 3.586-.363 0-.667-.058-.843-.093l-.797 3.691c.223.07.773.164 1.477.164 4.054 0 5.718-2.59 6.89-7.031l1.735-6.586h4.277L44.735 24.5h4.301zm15.327 0h4.371L66.79 7.59h-5.262L52.105 24.5h4.547l1.91-3.715h5.52l.281 3.715zm-1.02-13.137h.094l.469 6.328H60.12l3.222-6.328zm23.8 13.137L90.74 7.59h-4.394l-1.43 6.656h-6.55l1.43-6.656H75.4L71.803 24.5h4.395l1.464-6.844h6.54L82.747 24.5h4.395zm12.584 0l2.86-13.453h4.863l.738-3.457h-14.04l-.738 3.457h4.863L95.427 24.5h4.3z"/><path d="M13.121 24.5l-.2.015.015.185h.185v-.2zm4.371 0v.2h.224l-.025-.223-.199.023zM15.547 7.59l.199-.023-.02-.177h-.18v.2zm-5.262 0v-.2h-.117l-.058.103.175.097zM.863 24.5l-.174-.097-.166.297h.34v-.2zm4.547 0v.2h.122l.056-.108-.178-.092zm1.91-3.715v-.2h-.122l-.056.109.178.091zm5.52 0l.2-.015-.015-.185h-.185v.2zm-.738-9.422v-.2h-.123l-.056.11.179.09zm.093 0l.2-.014-.014-.186h-.186v.2zm.47 6.328v.2h.214l-.015-.214-.2.014zm-3.786 0l-.178-.09-.148.29h.326v-.2zM13.12 24.7h4.371v-.4h-4.37v.4zm4.57-.223l-1.945-16.91-.398.046 1.946 16.91.397-.046zM15.547 7.39h-5.262v.4h5.262v-.4zm-5.437.103L.69 24.402l.349.194 9.422-16.91-.35-.195zM.863 24.7H5.41v-.4H.863v.4zm4.725-.108l1.91-3.715-.356-.183-1.91 3.715.356.183zm1.732-3.607h5.52v-.4H7.32v.4zm5.32-.185l.282 3.715.398-.03-.28-3.715-.4.03zm-.538-9.237h.093v-.4h-.093v.4zm-.106-.185l.469 6.328.399-.03-.47-6.327-.398.03zm.668 6.113H8.88v.4h3.785v-.4zm-3.607.291l3.223-6.328-.357-.181L8.701 17.6l.356.181zM27.124 24.5v.2h.162l.033-.158-.195-.042zm2.859-13.453v-.2h-.162l-.034.158.196.042zm4.863 0v.2h.162l.034-.158-.196-.042zm.739-3.457l.195.042.052-.242h-.248v.2zm-14.04 0v-.2h-.161l-.034.158.195.042zm-.738 3.457l-.195-.042-.052.242h.247v-.2zm4.864 0l.195.041.051-.241h-.247v.2zM22.823 24.5l-.196-.041-.051.241h.247v-.2zm4.496.042l2.86-13.454-.392-.083-2.859 13.453.391.084zm2.664-13.295h4.863v-.4h-4.863v.4zm5.059-.158l.738-3.457-.391-.084-.738 3.457.39.084zm.542-3.7H21.545v.4h14.04v-.4zm-14.234.16l-.738 3.456.39.084.74-3.457-.392-.084zm-.543 3.698h4.864v-.4h-4.864v.4zm4.668-.242L22.627 24.46l.392.082 2.847-13.453-.391-.082zM22.823 24.7h4.3v-.4h-4.3v.4zm26.213-.2v.2h.162l.034-.158-.196-.042zm3.598-16.91l.196.041.05-.241h-.246v.2zm-12.41 0v-.2h-.155l-.039.15.194.05zm-2.508 9.726l.194.05-.194-.05zm-3.703 3.493l.039-.197-.193-.038-.042.192.196.043zm-.797 3.691l-.196-.042-.038.178.174.055.06-.191zm8.367-6.867l.194.05-.194-.05zm1.735-6.586v-.2h-.155l-.039.149.194.05zm4.277 0l.196.041.05-.241h-.246v.2zM44.735 24.5l-.195-.042-.051.242h.247v-.2zm4.497.042l3.598-16.91-.392-.084-3.597 16.91.39.084zM52.634 7.39h-12.41v.4h12.41v-.4zm-12.604.15l-2.508 9.727.388.1 2.507-9.727-.387-.1zm-2.508 9.726c-.273 1.058-.616 1.925-1.058 2.525-.438.593-.96.911-1.607.911v.4c.806 0 1.437-.407 1.929-1.074.486-.66.846-1.586 1.124-2.662l-.388-.1zm-2.665 3.436a3.99 3.99 0 01-.805-.09l-.078.393c.178.035.499.097.883.097v-.4zm-1.04.064l-.797 3.692.391.084.797-3.691-.39-.085zm-.661 3.925c.248.078.82.173 1.537.173v-.4c-.69 0-1.22-.092-1.417-.155l-.12.382zm1.537.173c2.077 0 3.563-.666 4.675-1.917 1.102-1.24 1.82-3.035 2.408-5.263l-.386-.102c-.584 2.213-1.284 3.933-2.32 5.1-1.027 1.154-2.4 1.782-4.377 1.782v.4zm7.084-7.18l1.734-6.586-.387-.102-1.734 6.586.386.102zm1.54-6.437h4.278v-.4h-4.277v.4zm4.082-.242l-2.86 13.453.392.084 2.86-13.454-.392-.083zM44.736 24.7h4.3v-.4h-4.3v.4zm19.627-.2l-.2.015.014.185h.186v-.2zm4.371 0v.2h.224l-.025-.223-.199.023zM66.79 7.59l.198-.023-.02-.177h-.178v.2zm-5.262 0v-.2h-.117l-.058.103.175.097zM52.105 24.5l-.175-.097-.165.297h.34v-.2zm4.547 0v.2h.122l.056-.108-.178-.092zm1.91-3.715v-.2h-.122l-.056.109.178.091zm5.52 0l.2-.015-.015-.185h-.185v.2zm-.739-9.422v-.2h-.122l-.056.11.178.09zm.094 0l.2-.014-.014-.186h-.186v.2zm.469 6.328v.2h.215l-.016-.214-.2.014zm-3.785 0l-.178-.09-.148.29h.326v-.2zm4.242 7.009h4.371v-.4h-4.371v.4zm4.57-.223l-1.946-16.91-.397.046 1.945 16.91.398-.046zM66.789 7.39h-5.262v.4h5.262v-.4zm-5.437.103l-9.422 16.91.35.194 9.422-16.91-.35-.195zM52.105 24.7h4.547v-.4h-4.547v.4zm4.725-.108l1.91-3.715-.356-.183-1.91 3.715.356.183zm1.732-3.607h5.52v-.4h-5.52v.4zm5.32-.185l.282 3.715.398-.03-.28-3.715-.4.03zm-.539-9.237h.094v-.4h-.094v.4zm-.105-.185l.468 6.328.4-.03-.47-6.327-.398.03zm.668 6.113H60.12v.4h3.785v-.4zm-3.607.291l3.223-6.328-.357-.181-3.222 6.328.356.181zM87.143 24.5v.2h.162l.033-.158-.195-.042zM90.74 7.59l.196.041.051-.241h-.246v.2zm-4.394 0v-.2h-.162l-.034.158.196.042zm-1.43 6.656v.2h.162l.034-.158-.196-.042zm-6.55 0l-.196-.042-.052.242h.248v-.2zm1.43-6.656l.195.042.052-.242h-.248v.2zm-4.395 0v-.2h-.162l-.034.158.196.042zM71.803 24.5l-.196-.042-.051.242h.247v-.2zm4.395 0v.2h.161l.034-.158-.195-.042zm1.464-6.844v-.2h-.161l-.034.158.195.042zm6.54 0l.195.042.051-.242h-.247v.2zM82.747 24.5l-.195-.041-.052.241h.247v-.2zm4.59.042l3.598-16.91-.391-.084-3.598 16.91.391.084zM90.741 7.39h-4.395v.4h4.394v-.4zm-4.59.158l-1.43 6.656.39.084 1.43-6.656-.39-.084zm-1.235 6.498h-6.55v.4h6.55v-.4zm-6.355.242l1.43-6.656-.391-.084-1.43 6.656.391.084zm1.234-6.898h-4.394v.4h4.394v-.4zm-4.59.158l-3.598 16.91.392.084 3.597-16.91-.391-.084zM71.803 24.7h4.395v-.4h-4.395v.4zm4.59-.158l1.465-6.844-.391-.084-1.465 6.844.391.084zm1.27-6.686H84.2v-.4h-6.539v.4zm6.343-.241l-1.453 6.844.39.082 1.454-6.843-.391-.083zM82.748 24.7h4.395v-.4h-4.395v.4zm16.98-.2v.2h.161l.034-.158-.196-.042zm2.859-13.453v-.2h-.162l-.034.158.196.042zm4.863 0v.2h.162l.034-.158-.196-.042zm.738-3.457l.196.042.051-.242h-.247v.2zm-14.039 0v-.2h-.162l-.033.158.195.042zm-.738 3.457l-.196-.042-.051.242h.247v-.2zm4.863 0l.196.041.051-.241h-.247v.2zM95.427 24.5l-.196-.041-.051.241h.247v-.2zm4.496.042l2.859-13.454-.391-.083-2.86 13.453.392.084zm2.664-13.295h4.863v-.4h-4.863v.4zm5.059-.158l.738-3.457-.391-.084-.739 3.457.392.084zm.542-3.7H94.149v.4h14.039v-.4zm-14.234.16l-.739 3.456.391.084.739-3.457-.391-.084zm-.543 3.698h4.863v-.4h-4.863v.4zm4.668-.242L95.23 24.46l.391.082 2.848-13.453-.391-.082zM95.427 24.7h4.3v-.4h-4.3v.4zm57.143 6.382h4.184c.023-.164.047-.387.047-.656-.059-3.598-2.93-6.13-6.914-6.13-5.801 0-9.598 4.138-9.598 10.337 0 4.347 2.895 7.16 7.359 7.16 4.29 0 7.594-2.566 8.25-6.398h-4.183c-.563 1.757-2.004 2.847-3.797 2.847-1.992 0-3.211-1.465-3.211-3.855 0-3.832 1.969-6.575 4.77-6.575 1.722 0 3.046 1.184 3.093 2.836.012.293.012.364 0 .434zm16.834 6.961h-7.277l.738-3.457h6.844l.668-3.164h-6.844l.715-3.375h7.277l.738-3.457h-11.578l-3.597 16.91h11.589l.727-3.457zm5.607-13.453l-3.586 16.91h4.301l1.055-4.957h2.801c4.628 0 7.64-2.625 7.64-6.855 0-3.07-2.226-5.098-5.906-5.098h-6.305zm3.598 3.305h1.816c1.571 0 2.473.726 2.473 2.18 0 1.898-1.301 3.222-3.316 3.222h-2.122l1.149-5.402zM196.04 41.5c3.715 0 6.364-2.25 6.364-5.39 0-1.735-1.278-3.036-3.082-3.422l.011-.083c2.285-.457 3.914-2.144 3.914-4.382 0-2.075-1.734-3.633-4.933-3.633h-7.406L187.31 41.5h8.73zm-1.523-14.121h2.273c1.418 0 2.157.633 2.157 1.629 0 1.324-1.125 2.285-2.825 2.285h-2.425l.82-3.914zm-2.344 11.074l.926-4.383h2.59c1.594 0 2.414.692 2.414 1.84 0 1.524-1.195 2.543-3.047 2.543h-2.883zm22.705 3.047h4.207l3.598-16.91h-4.114l-9.105 10.465h-.223l2.239-10.465h-4.208l-3.597 16.91h4.125l9.094-10.453h.222L214.878 41.5zm20.806-10.418h4.184c.023-.164.047-.387.047-.656-.059-3.598-2.93-6.13-6.914-6.13-5.801 0-9.598 4.138-9.598 10.337 0 4.347 2.895 7.16 7.359 7.16 4.29 0 7.594-2.566 8.25-6.398h-4.183c-.563 1.757-2.004 2.847-3.797 2.847-1.992 0-3.211-1.465-3.211-3.855 0-3.832 1.969-6.575 4.77-6.575 1.722 0 3.046 1.184 3.093 2.836.012.293.012.364 0 .434z"/><path d="M152.57 31.082l-.197-.033-.039.233h.236v-.2zm4.184 0v.2h.173l.025-.172-.198-.028zm.047-.656h.2v-.003l-.2.003zm-.903 4.969l.198.033.04-.233h-.238v.2zm-4.183 0v-.2h-.146l-.045.139.191.06zm.855-4.747l-.2.006v.002l.2-.008zm0 .634h4.184v-.4h-4.184v.4zm4.382-.172c.024-.17.049-.403.049-.684h-.4c0 .258-.023.47-.045.628l.396.056zm.049-.688c-.061-3.726-3.041-6.325-7.114-6.325v.4c3.895 0 6.657 2.463 6.714 5.932l.4-.006zm-7.114-6.325c-2.951 0-5.405 1.053-7.121 2.907-1.715 1.853-2.677 4.489-2.677 7.629h.4c0-3.06.936-5.592 2.57-7.357 1.633-1.764 3.977-2.78 6.828-2.78v-.4zm-9.798 10.536c0 2.22.74 4.064 2.066 5.354 1.325 1.289 3.219 2.006 5.493 2.006v-.4c-2.19 0-3.976-.69-5.214-1.893-1.238-1.204-1.945-2.939-1.945-5.067h-.4zm7.559 7.36c4.372 0 7.773-2.623 8.448-6.565l-.395-.067c-.637 3.722-3.846 6.232-8.053 6.232v.4zm8.25-6.799h-4.183v.4h4.183v-.4zm-4.374.14c-.537 1.679-1.905 2.708-3.606 2.708v.4c1.884 0 3.4-1.15 3.987-2.986l-.381-.122zm-3.606 2.708c-.943 0-1.687-.344-2.199-.959-.515-.62-.812-1.533-.812-2.696h-.4c0 1.227.313 2.24.905 2.952.595.715 1.457 1.103 2.506 1.103v-.4zm-3.011-3.655c0-1.884.484-3.484 1.297-4.607.809-1.12 1.945-1.768 3.273-1.768v-.4c-1.473 0-2.723.724-3.598 1.933-.872 1.206-1.372 2.894-1.372 4.842h.4zm4.57-6.375c1.626 0 2.85 1.11 2.893 2.642l.4-.011c-.05-1.773-1.475-3.03-3.293-3.03v.4zm2.893 2.644c.013.302.011.348.003.393l.395.066c.015-.095.014-.19.002-.475l-.4.016zm17.034 7.387l.196.041.05-.241h-.246v.2zm-7.277 0l-.196-.042-.052.242h.248v-.2zm.738-3.457v-.2h-.162l-.034.158.196.042zm6.844 0v.2h.162l.033-.159-.195-.041zm.668-3.164l.195.041.051-.241h-.246v.2zm-6.844 0l-.196-.042-.051.242h.247v-.2zm.715-3.375v-.2h-.162l-.034.158.196.042zm7.277 0v.2h.162l.034-.158-.196-.042zm.738-3.457l.196.042.052-.242h-.248v.2zm-11.578 0v-.2h-.162l-.033.158.195.042zm-3.597 16.91l-.196-.042-.051.242h.247v-.2zm11.589 0v.2h.163l.033-.159-.196-.041zm.727-3.657h-7.277v.4h7.277v-.4zm-7.082.242l.739-3.457-.392-.084-.738 3.457.391.084zm.543-3.3h6.844v-.4h-6.844v.4zm7.039-.158l.668-3.164-.391-.082-.668 3.164.391.082zm.473-3.405h-6.844v.4h6.844v-.4zm-6.648.241l.714-3.375-.391-.083-.715 3.375.392.083zm.519-3.216h7.277v-.4h-7.277v.4zm7.473-.158l.738-3.457-.391-.084-.738 3.457.391.084zm.542-3.7h-11.578v.4h11.578v-.4zm-11.773.16l-3.598 16.91.391.083 3.598-16.91-.391-.084zM157.088 41.7h11.589v-.4h-11.589v.4zm11.785-.159l.727-3.457-.392-.082-.726 3.457.391.082zm6.138-16.951v-.2h-.162l-.033.158.195.042zm-3.586 16.91l-.195-.041-.052.241h.247v-.2zm4.301 0v.2h.162l.034-.158-.196-.042zm1.055-4.957v-.2h-.162l-.034.158.196.042zm1.828-8.648v-.2h-.162l-.034.158.196.041zm-1.149 5.402l-.195-.042-.052.242h.247v-.2zm-2.644-8.749l-3.586 16.91.391.084 3.586-16.91-.391-.084zM171.425 41.7h4.301v-.4h-4.301v.4zm4.497-.158l1.054-4.957-.391-.084-1.055 4.957.392.084zm.859-4.799h2.801v-.4h-2.801v.4zm2.801 0c2.351 0 4.312-.667 5.689-1.892 1.379-1.227 2.151-2.998 2.151-5.163h-.4c0 2.064-.733 3.721-2.017 4.864-1.287 1.145-3.146 1.791-5.423 1.791v.4zm7.84-7.056c0-1.586-.577-2.918-1.641-3.85-1.062-.93-2.59-1.447-4.465-1.447v.4c1.804 0 3.23.497 4.201 1.348.969.848 1.505 2.066 1.505 3.55h.4zm-6.106-5.297h-6.305v.4h6.305v-.4zm-2.707 3.704h1.816v-.4h-1.816v.4zm1.816 0c.758 0 1.322.176 1.695.497.367.316.578.8.578 1.483h.4c0-.77-.241-1.376-.717-1.786-.471-.406-1.143-.593-1.956-.593v.4zm2.273 1.98c0 .903-.308 1.655-.843 2.181-.534.526-1.31.842-2.273.842v.4c1.052 0 1.934-.347 2.554-.957.62-.61.962-1.47.962-2.466h-.4zm-3.116 3.023h-2.122v.4h2.122v-.4zm-1.926.242l1.149-5.403-.392-.083-1.148 5.402.391.084zm21.666-.651l-.198-.029-.027.185.183.04.042-.197zm.011-.083l-.039-.196-.139.028-.02.14.198.029zm-8.425-8.015v-.2h-.162l-.034.158.196.042zM187.31 41.5l-.196-.042-.051.242h.247v-.2zm7.207-14.121v-.2h-.163l-.033.159.196.04zm-.82 3.914l-.196-.041-.051.241h.247v-.2zm-1.524 7.16l-.196-.041-.051.241h.247v-.2zm.926-4.383v-.2h-.162l-.034.159.196.041zm2.941 7.63c3.793 0 6.564-2.31 6.564-5.59h-.4c0 3-2.527 5.19-6.164 5.19v.4zm6.564-5.59c0-1.85-1.366-3.216-3.241-3.618l-.083.391c1.735.372 2.924 1.608 2.924 3.226h.4zm-3.084-3.394l.011-.082-.396-.057-.011.082.396.057zm-.147.086c2.36-.472 4.074-2.228 4.074-4.58h-.4c0 2.126-1.543 3.745-3.753 4.187l.079.393zm4.074-4.58a3.394 3.394 0 00-1.344-2.751c-.878-.684-2.159-1.081-3.789-1.081v.4c1.569 0 2.755.382 3.543.996.785.61 1.19 1.46 1.19 2.437h.4zm-5.133-3.832h-7.406v.4h7.406v-.4zm-7.602.158l-3.598 16.91.391.084 3.598-16.91-.391-.084zM187.31 41.7h8.73v-.4h-8.73v.4zm7.207-14.121h2.273v-.4h-2.273v.4zm2.273 0c.683 0 1.173.153 1.487.398.308.24.47.587.47 1.03h.4c0-.552-.208-1.02-.624-1.345-.409-.32-.997-.483-1.733-.483v.4zm1.957 1.429c0 .6-.254 1.116-.702 1.485-.451.37-1.11.6-1.923.6v.4c.887 0 1.64-.25 2.177-.691a2.278 2.278 0 00.848-1.794h-.4zm-2.625 2.085h-2.425v.4h2.425v-.4zm-2.23.241l.821-3.914-.392-.082-.82 3.914.391.082zm-1.523 7.16l.926-4.382-.392-.083-.926 4.383.392.083zm.73-4.224h2.59v-.4h-2.59v.4zm2.59 0c.772 0 1.325.168 1.681.447.349.273.533.671.533 1.193h.4c0-.626-.227-1.148-.686-1.508-.453-.354-1.106-.532-1.928-.532v.4zm2.214 1.64c0 .706-.275 1.284-.758 1.69-.486.408-1.199.653-2.089.653v.4c.961 0 1.772-.265 2.346-.747.578-.485.901-1.178.901-1.996h-.4zm-2.847 2.343h-2.883v.4h2.883v-.4zm19.822 3.247l-.196-.042-.051.242h.247v-.2zm4.207 0v.2h.162l.034-.158-.196-.042zm3.598-16.91l.195.041.052-.241h-.247v.2zm-4.114 0v-.2h-.091l-.06.069.151.13zm-9.105 10.465v.2h.091l.06-.069-.151-.131zm-.223 0l-.195-.042-.052.242h.247v-.2zm2.239-10.465l.195.042.052-.242h-.247v.2zm-4.208 0v-.2h-.161l-.034.158.195.042zm-3.597 16.91l-.196-.042-.051.242h.247v-.2zm4.125 0v.2h.091l.06-.069-.151-.131zm9.094-10.453v-.2h-.092l-.059.069.151.13zm.222 0l.196.042.052-.242h-.248v.2zM214.878 41.7h4.207v-.4h-4.207v.4zm4.403-.158l3.597-16.91-.391-.084-3.598 16.91.392.084zm3.402-17.152h-4.114v.4h4.114v-.4zm-4.265.069l-9.105 10.464.302.263 9.105-10.465-.302-.262zm-8.954 10.396h-.223v.4h.223v-.4zm-.027.242l2.238-10.465-.391-.084-2.238 10.465.391.084zm2.043-10.707h-4.208v.4h4.208v-.4zm-4.403.158l-3.598 16.91.391.084 3.598-16.91-.391-.084zM203.675 41.7h4.125v-.4h-4.125v.4zm4.276-.069l9.093-10.453-.301-.262-9.094 10.453.302.262zm8.943-10.384h.222v-.4h-.222v.4zm.027-.242l-2.239 10.453.392.084 2.238-10.453-.391-.084zm18.763.077l-.197-.033-.039.233h.236v-.2zm4.184 0v.2h.173l.025-.172-.198-.028zm.047-.656h.2v-.003l-.2.003zm-.903 4.969l.198.033.04-.233h-.238v.2zm-4.183 0v-.2h-.146l-.045.139.191.06zm.855-4.747l-.2.006.001.002.199-.008zm0 .634h4.184v-.4h-4.184v.4zm4.382-.172c.024-.17.049-.403.049-.684h-.4c0 .258-.023.47-.045.628l.396.056zm.049-.688c-.061-3.726-3.041-6.325-7.114-6.325v.4c3.895 0 6.657 2.463 6.714 5.932l.4-.006zm-7.114-6.325c-2.95 0-5.405 1.053-7.121 2.907-1.715 1.853-2.677 4.489-2.677 7.629h.4c0-3.06.936-5.592 2.57-7.357 1.633-1.764 3.977-2.78 6.828-2.78v-.4zm-9.798 10.536c0 2.22.74 4.064 2.066 5.354 1.326 1.289 3.219 2.006 5.493 2.006v-.4c-2.19 0-3.976-.69-5.214-1.893-1.237-1.204-1.945-2.939-1.945-5.067h-.4zm7.559 7.36c4.372 0 7.773-2.623 8.448-6.565l-.395-.067c-.637 3.722-3.846 6.232-8.053 6.232v.4zm8.25-6.799h-4.183v.4h4.183v-.4zm-4.374.14c-.537 1.679-1.905 2.708-3.606 2.708v.4c1.885 0 3.4-1.15 3.987-2.986l-.381-.122zm-3.606 2.708c-.943 0-1.687-.344-2.199-.959-.515-.62-.812-1.533-.812-2.696h-.4c0 1.227.313 2.24.905 2.952.595.715 1.457 1.103 2.506 1.103v-.4zm-3.011-3.655c0-1.884.484-3.484 1.297-4.607.81-1.12 1.945-1.768 3.273-1.768v-.4c-1.473 0-2.723.724-3.597 1.933-.873 1.206-1.373 2.894-1.373 4.842h.4zm4.57-6.375c1.627 0 2.85 1.11 2.893 2.642l.4-.011c-.05-1.773-1.475-3.03-3.293-3.03v.4zm2.894 2.644c.012.302.01.348.002.393l.395.066c.016-.095.014-.19.002-.475l-.399.016z"/></symbol><symbol viewBox="0 0 512 512" id="number-one" xmlns="http://www.w3.org/2000/svg"><path d="M166 211H91a7.5 7.5 0 00-7.5 7.5v75A7.5 7.5 0 0091 301h75a7.5 7.5 0 007.5-7.5v-75a7.5 7.5 0 00-7.5-7.5zm-7.5 75h-60v-60h60z"/><path d="M257 308.5c0-12.407-10.094-22.5-22.5-22.5h-31v-60h31c12.406 0 22.5-10.093 22.5-22.5S246.906 181 234.5 181h-31v-31c0-12.407-10.094-22.5-22.5-22.5s-22.5 10.093-22.5 22.5v31h-60v-31c0-12.407-10.094-22.5-22.5-22.5S53.5 137.593 53.5 150v31h-31C10.094 181 0 191.093 0 203.5S10.094 226 22.5 226h31v60h-31C10.094 286 0 296.093 0 308.5S10.094 331 22.5 331h31v31c0 12.407 10.094 22.5 22.5 22.5s22.5-10.093 22.5-22.5v-31h60v31c0 12.407 10.094 22.5 22.5 22.5s22.5-10.093 22.5-22.5v-31h31c12.406 0 22.5-10.093 22.5-22.5zm-61 7.5a7.5 7.5 0 00-7.5 7.5V362c0 4.136-3.364 7.5-7.5 7.5s-7.5-3.364-7.5-7.5v-38.5a7.5 7.5 0 00-7.5-7.5H91a7.5 7.5 0 00-7.5 7.5V362c0 4.136-3.364 7.5-7.5 7.5s-7.5-3.364-7.5-7.5v-38.5A7.5 7.5 0 0061 316H22.5c-4.136 0-7.5-3.364-7.5-7.5s3.364-7.5 7.5-7.5H61a7.5 7.5 0 007.5-7.5v-75A7.5 7.5 0 0061 211H22.5c-4.136 0-7.5-3.364-7.5-7.5s3.364-7.5 7.5-7.5H61a7.5 7.5 0 007.5-7.5V150c0-4.136 3.364-7.5 7.5-7.5s7.5 3.364 7.5 7.5v38.5A7.5 7.5 0 0091 196h75a7.5 7.5 0 007.5-7.5V150c0-4.136 3.364-7.5 7.5-7.5s7.5 3.364 7.5 7.5v38.5a7.5 7.5 0 007.5 7.5h38.5c4.136 0 7.5 3.364 7.5 7.5s-3.364 7.5-7.5 7.5H196a7.5 7.5 0 00-7.5 7.5v75a7.5 7.5 0 007.5 7.5h38.5c4.136 0 7.5 3.364 7.5 7.5s-3.364 7.5-7.5 7.5z"/><path d="M467 407.534V52.5C467 23.551 443.448 0 414.5 0h-135C250.552 0 227 23.551 227 52.5c0 26.402 19.592 48.315 45 51.966v303.068c-25.408 3.65-45 25.563-45 51.966 0 28.949 23.552 52.5 52.5 52.5h180c28.948 0 52.5-23.551 52.5-52.5 0-26.402-19.592-48.315-45-51.966zM459.5 497h-180c-20.678 0-37.5-16.822-37.5-37.5s16.822-37.5 37.5-37.5a7.5 7.5 0 007.5-7.5v-317a7.5 7.5 0 00-7.5-7.5C258.822 90 242 73.178 242 52.5S258.822 15 279.5 15h135c20.678 0 37.5 16.822 37.5 37.5v362a7.5 7.5 0 007.5 7.5c20.678 0 37.5 16.822 37.5 37.5S480.178 497 459.5 497z"/><path d="M459.5 437H437V52.5c0-12.407-10.094-22.5-22.5-22.5h-135C267.094 30 257 40.093 257 52.5S267.094 75 279.5 75H302v166c0 4.142 3.357 7.5 7.5 7.5s7.5-3.358 7.5-7.5V67.5a7.5 7.5 0 00-7.5-7.5h-30c-4.136 0-7.5-3.364-7.5-7.5s3.364-7.5 7.5-7.5h135c4.136 0 7.5 3.364 7.5 7.5v392a7.5 7.5 0 007.5 7.5h30c4.136 0 7.5 3.364 7.5 7.5s-3.364 7.5-7.5 7.5h-180c-4.136 0-7.5-3.364-7.5-7.5s3.364-7.5 7.5-7.5h30a7.5 7.5 0 007.5-7.5V271c0-4.142-3.357-7.5-7.5-7.5s-7.5 3.358-7.5 7.5v166h-22.5c-12.406 0-22.5 10.093-22.5 22.5s10.094 22.5 22.5 22.5h180c12.406 0 22.5-10.093 22.5-22.5S471.906 437 459.5 437z"/></symbol><symbol viewBox="0 0 97.75 97.75" id="odnoklassniki-logo" xmlns="http://www.w3.org/2000/svg"><path d="M48.921 40.507a8.367 8.367 0 008.367-8.443c-.017-4.679-3.742-8.402-8.411-8.406a8.398 8.398 0 00-8.432 8.508c.035 4.66 3.794 8.358 8.476 8.341z"/><path d="M48.875 0C21.882 0 0 21.883 0 48.875S21.882 97.75 48.875 97.75 97.75 75.867 97.75 48.875 75.868 0 48.875 0zm.07 14.863c9.52.026 17.161 7.813 17.112 17.438-.048 9.403-7.814 17.024-17.318 16.992-9.407-.032-17.122-7.831-17.066-17.253.053-9.525 7.772-17.203 17.272-17.177zm19.282 41.194c-2.105 2.161-4.639 3.725-7.453 4.816-2.66 1.031-5.575 1.55-8.461 1.896.437.474.642.707.914.979 3.916 3.937 7.851 7.854 11.754 11.802 1.33 1.346 1.607 3.014.875 4.577-.799 1.71-2.592 2.834-4.351 2.713-1.114-.077-1.983-.63-2.754-1.407-2.956-2.974-5.968-5.895-8.862-8.925-.845-.882-1.249-.714-1.994.052a589.856 589.856 0 01-9.034 9.072c-1.365 1.346-2.989 1.59-4.573.82-1.683-.814-2.753-2.533-2.671-4.262.058-1.166.632-2.06 1.434-2.858 3.877-3.869 7.742-7.75 11.608-11.628.257-.257.495-.53.868-.93-5.273-.551-10.028-1.849-14.099-5.032-.506-.396-1.027-.778-1.487-1.222-1.783-1.711-1.962-3.672-.553-5.69 1.207-1.728 3.231-2.19 5.336-1.197.408.191.796.433 1.168.689 7.586 5.213 18.008 5.356 25.624.233.754-.576 1.561-1.05 2.496-1.289 1.816-.468 3.512.201 4.486 1.791 1.115 1.817 1.102 3.589-.271 5z"/></symbol><symbol viewBox="0 0 505.709 505.709" id="phone-call" xmlns="http://www.w3.org/2000/svg"><path d="M427.554 71.862c-99.206-95.816-256.486-95.816-355.692 0-98.222 101.697-95.405 263.762 6.292 361.984 99.206 95.816 256.486 95.816 355.692 0 98.222-101.696 95.405-263.762-6.292-361.984zm-5.74 349.952l-.085-.085c-93.352 93.267-244.636 93.198-337.903-.154S-9.372 176.94 83.98 83.673s244.636-93.198 337.903.153a238.932 238.932 0 0169.905 169.028 238.934 238.934 0 01-69.974 168.96z"/><path d="M396.641 325.729l-47.957-47.787c-10.884-10.91-28.552-10.931-39.462-.047l-.047.047-27.477 27.477a6.058 6.058 0 01-7.765.683 310.599 310.599 0 01-42.069-35.328 312.33 312.33 0 01-31.915-37.291 5.973 5.973 0 01.597-7.765l28.16-28.16c10.872-10.893 10.872-28.531 0-39.424l-47.957-47.957c-11.051-10.565-28.458-10.565-39.509 0l-15.189 15.189c-22.939 22.681-31.128 56.359-21.163 87.04a255.982 255.982 0 0031.232 63.317 323.712 323.712 0 0040.96 49.835 321.547 321.547 0 0054.869 44.288 244.287 244.287 0 0070.997 31.573 82.193 82.193 0 0019.797 2.389 86.357 86.357 0 0060.843-25.6l13.056-13.056c10.871-10.892 10.871-28.53-.001-39.423zm-12.084 27.785l-.034.034.085-.256-13.056 13.056a68.267 68.267 0 01-64.427 18.432 226.834 226.834 0 01-65.877-29.525 304.371 304.371 0 01-51.968-41.899 306.71 306.71 0 01-38.827-47.104 238.907 238.907 0 01-29.184-59.051 68.265 68.265 0 0117.067-69.717l15.189-15.189c4.223-4.242 11.085-4.257 15.326-.034l.034.034 47.957 47.957c4.242 4.223 4.257 11.085.034 15.326l-.034.034-28.16 28.16c-8.08 7.992-9.096 20.692-2.389 29.867A329.334 329.334 0 00220 282.978a327.314 327.314 0 0044.373 37.291c9.167 6.394 21.595 5.316 29.525-2.56l27.221-27.648c4.223-4.242 11.085-4.257 15.326-.034l.034.034 48.043 48.128c4.243 4.222 4.258 11.083.035 15.325z"/></symbol><symbol viewBox="0 0 368.16 368.16" id="pin" xmlns="http://www.w3.org/2000/svg"><path d="M184.08 0c-74.992 0-136 61.008-136 136 0 24.688 11.072 51.24 11.536 52.36 3.576 8.488 10.632 21.672 15.72 29.4l93.248 141.288c3.816 5.792 9.464 9.112 15.496 9.112s11.68-3.32 15.496-9.104l93.256-141.296c5.096-7.728 12.144-20.912 15.72-29.4.464-1.112 11.528-27.664 11.528-52.36 0-74.992-61.008-136-136-136zM293.8 182.152c-3.192 7.608-9.76 19.872-14.328 26.8l-93.256 141.296c-1.84 2.792-2.424 2.792-4.264 0L88.696 208.952c-4.568-6.928-11.136-19.2-14.328-26.808-.136-.328-10.288-24.768-10.288-46.144 0-66.168 53.832-120 120-120s120 53.832 120 120c0 21.408-10.176 45.912-10.28 46.152z"/><path d="M184.08 64.008c-39.704 0-72 32.304-72 72s32.296 72 72 72 72-32.304 72-72-32.296-72-72-72zm0 128c-30.872 0-56-25.12-56-56s25.128-56 56-56 56 25.12 56 56-25.128 56-56 56z"/></symbol><symbol viewBox="0 0 512 512" id="placeholder" xmlns="http://www.w3.org/2000/svg"><path d="M256 0C156.748 0 76 80.748 76 180c0 33.534 9.289 66.26 26.869 94.652l142.885 230.257A15 15 0 00258.499 512h.119a14.997 14.997 0 0012.75-7.292L410.611 272.22C427.221 244.428 436 212.539 436 180 436 80.748 355.252 0 256 0zm128.866 256.818L258.272 468.186l-129.905-209.34C113.734 235.214 105.8 207.95 105.8 180c0-82.71 67.49-150.2 150.2-150.2S406.1 97.29 406.1 180c0 27.121-7.411 53.688-21.234 76.818z"/><path d="M256 90c-49.626 0-90 40.374-90 90 0 49.309 39.717 90 90 90 50.903 0 90-41.233 90-90 0-49.626-40.374-90-90-90zm0 150.2c-33.257 0-60.2-27.033-60.2-60.2 0-33.084 27.116-60.2 60.2-60.2s60.1 27.116 60.1 60.2c0 32.683-26.316 60.2-60.1 60.2z"/></symbol><symbol viewBox="0 0 64 64" id="quality-assurance" xmlns="http://www.w3.org/2000/svg"><path d="M43.303 25.925l-.701-1.873c-.627.235-1.263.45-1.891.64l.578 1.914a32.682 32.682 0 002.014-.681zM37 30.28v-2.688a33.879 33.879 0 002.226-.435l-.451-1.949c-.964.224-1.941.4-2.904.527L35 25.85v4.431c0 .268.006.535.02.801l1.998-.102a13.569 13.569 0 01-.018-.7zM19 13c-3.309 0-6 2.691-6 6s2.691 6 6 6 6-2.691 6-6-2.691-6-6-6zm0 10c-2.206 0-4-1.794-4-4s1.794-4 4-4 4 1.794 4 4-1.794 4-4 4z"/><path d="M45.478 18.788l-.477-.259-.477.259a26.726 26.726 0 01-12.53 3.211l-.994.006v8.275c0 8.677 5.489 16.495 13.659 19.453l.341.123.341-.123C53.511 46.775 59 38.957 59 30.28v-8.275l-.994-.006a26.734 26.734 0 01-12.528-3.211zM57 30.28c0 7.717-4.807 14.682-12 17.445-7.193-2.764-12-9.729-12-17.445v-6.305a28.75 28.75 0 0012.001-3.177A28.753 28.753 0 0057 23.975z"/><path d="M41 31.586L36.586 36 43 42.414 55.414 30 51 25.586l-8 8zM52.586 30L43 39.586 39.414 36 41 34.414l2 2 8-8z"/><path d="M63 18h-4.829a22.644 22.644 0 01-12.622-3.836l-.587-.341-.551.367A22.604 22.604 0 0137 17.399v-2.191l-2.635-.62a15.895 15.895 0 00-1.381-3.332l1.426-2.303-5.363-5.363-2.303 1.426a15.895 15.895 0 00-3.332-1.381L22.792 1h-7.584l-.62 2.635a15.895 15.895 0 00-3.332 1.381L8.953 3.59 3.59 8.953l1.426 2.303a15.895 15.895 0 00-1.381 3.332L1 15.208v7.584l2.635.62a15.895 15.895 0 001.381 3.332L3.59 29.047l5.363 5.363 2.303-1.426a15.895 15.895 0 003.332 1.381l.62 2.635h7.584l.62-2.635a15.895 15.895 0 003.332-1.381l.461.285a24.746 24.746 0 004.745 11.78l-3.364 12.335 4.938-1.235 3.737 6.229 3.353-10.059a24.345 24.345 0 004.104 1.639l.282.084.282-.083c1.433-.422 2.8-.98 4.104-1.639l3.353 10.059 3.737-6.229 4.938 1.235L58.05 45.05C61.177 40.872 63 35.718 63 30.28zM26.766 30.646l-.523.318a13.88 13.88 0 01-3.903 1.617l-.596.146L21.208 35h-4.416l-.535-2.273-.596-.146a13.88 13.88 0 01-3.903-1.617l-.523-.318-1.986 1.229-3.123-3.123 1.229-1.986-.318-.523A13.88 13.88 0 015.42 22.34l-.146-.596L3 21.208v-4.416l2.273-.535.146-.596a13.88 13.88 0 011.617-3.903l.318-.523-1.229-1.987 3.123-3.123 1.986 1.229.523-.318a13.88 13.88 0 013.903-1.617l.596-.146L16.792 3h4.416l.535 2.273.596.146a13.88 13.88 0 013.903 1.617l.523.318 1.986-1.229 3.123 3.123-1.229 1.986.318.523a13.88 13.88 0 011.617 3.903l.146.596 2.274.536v.982a22.903 22.903 0 01-3.171.226h-.88C30.438 11.85 25.28 7 19 7 12.383 7 7 12.383 7 19s5.383 12 12 12c2.98 0 5.82-1.119 8-3.068v2.349c0 .176.018.349.022.524zM27 18v6.979A10.013 10.013 0 0119 29c-5.514 0-10-4.486-10-10S13.486 9 19 9c5.176 0 9.446 3.954 9.949 9zm9.739 39.621l-2.263-3.771-3.062.765 2.099-7.698a24.778 24.778 0 005.324 4.409zm21.847-3.006l-3.062-.765-2.263 3.771-2.098-6.295a24.778 24.778 0 005.324-4.409zM61 30.28c0 9.894-6.564 18.765-16 21.676-9.436-2.911-16-11.782-16-21.676V20h2.829c4.673 0 9.203-1.309 13.17-3.808A24.59 24.59 0 0058.171 20H61z"/></symbol><symbol viewBox="0 0 128 128" id="security-camera" xmlns="http://www.w3.org/2000/svg"><path d="M127.125 55.9l-78-45.031a9.762 9.762 0 00-13.315 3.567l-8.98 15.553-5.978 10.353a9.763 9.763 0 003.57 13.319L51.165 69.1l-4.159 7.092a6.275 6.275 0 01-5.392 3.089H26v-11.9a1.75 1.75 0 00-1.75-1.75h-9.5v-2.258A7.759 7.759 0 007 55.623H1.75A1.749 1.749 0 000 57.373v59.317a1.749 1.749 0 001.75 1.75H7a7.759 7.759 0 007.75-7.75v-5.559h9.5a1.75 1.75 0 001.75-1.75v-8.6h15.614a21.834 21.834 0 0018.762-10.745l4.213-7.184 14.659 8.463a9.7 9.7 0 004.858 1.31 9.8 9.8 0 002.54-.336 9.689 9.689 0 004.235-2.389A14.579 14.579 0 0097 85.254a14.813 14.813 0 003.836-.508 14.614 14.614 0 007.971-5.4l3.584 2.069a1.749 1.749 0 002.391-.641l12.98-22.481a1.751 1.751 0 00-.637-2.393zM11.25 110.69A4.254 4.254 0 017 114.94H3.5V59.123H7a4.254 4.254 0 014.25 4.25v47.317zm11.25-9.059h-7.75v-32.5h7.75v32.5zm34.856-19.366a18.318 18.318 0 01-15.742 9.017H26v-8.5h15.614a9.788 9.788 0 008.411-4.818l4.175-7.112 7.362 4.25zM81 82.284L26.172 50.63a6.257 6.257 0 01-2.288-8.538l5.1-8.837 50.247 29.01 15.405 8.894L89.535 80l-.007.011a6.176 6.176 0 01-.441.65v.007A6.256 6.256 0 0181 82.284zm18.937-.919A11.155 11.155 0 0193 81l4.673-8.093 8.093 4.672a11.155 11.155 0 01-5.831 3.786zm12.695-3.86l-11.317-6.534L97.9 69 59.263 46.694l-28.527-16.47 8.105-14.038a6.257 6.257 0 018.538-2.286l76.48 44.157z"/><path d="M105.154 67.993a6.689 6.689 0 003.355.905 6.775 6.775 0 001.752-.232 6.73 6.73 0 10-5.107-.673zm.569-7.443a3.211 3.211 0 011.961-1.5 3.264 3.264 0 01.84-.111 3.233 3.233 0 11-2.8 1.616zM45.5 50.27l-14.34-8.281a1.75 1.75 0 10-1.75 3.031l14.344 8.28a1.75 1.75 0 001.746-3.03z"/></symbol><symbol viewBox="0 0 97.75 97.75" id="vk-social-logotype" xmlns="http://www.w3.org/2000/svg"><path d="M48.875 0C21.883 0 0 21.882 0 48.875S21.883 97.75 48.875 97.75 97.75 75.868 97.75 48.875 75.867 0 48.875 0zm24.792 54.161c2.278 2.225 4.688 4.319 6.733 6.774.906 1.086 1.76 2.209 2.41 3.472.928 1.801.09 3.776-1.522 3.883l-10.013-.002c-2.586.214-4.644-.829-6.379-2.597-1.385-1.409-2.67-2.914-4.004-4.371-.545-.598-1.119-1.161-1.803-1.604-1.365-.888-2.551-.616-3.333.81-.797 1.451-.979 3.059-1.055 4.674-.109 2.361-.821 2.978-3.19 3.089-5.062.237-9.865-.531-14.329-3.083-3.938-2.251-6.986-5.428-9.642-9.025-5.172-7.012-9.133-14.708-12.692-22.625-.801-1.783-.215-2.737 1.752-2.774 3.268-.063 6.536-.055 9.804-.003 1.33.021 2.21.782 2.721 2.037 1.766 4.345 3.931 8.479 6.644 12.313.723 1.021 1.461 2.039 2.512 2.76 1.16.796 2.044.533 2.591-.762.35-.823.501-1.703.577-2.585.26-3.021.291-6.041-.159-9.05-.28-1.883-1.339-3.099-3.216-3.455-.956-.181-.816-.535-.351-1.081.807-.944 1.563-1.528 3.074-1.528l11.313-.002c1.783.35 2.183 1.15 2.425 2.946l.01 12.572c-.021.695.349 2.755 1.597 3.21 1 .33 1.66-.472 2.258-1.105 2.713-2.879 4.646-6.277 6.377-9.794.764-1.551 1.423-3.156 2.063-4.764.476-1.189 1.216-1.774 2.558-1.754l10.894.013c.321 0 .647.003.965.058 1.836.314 2.339 1.104 1.771 2.895-.894 2.814-2.631 5.158-4.329 7.508-1.82 2.516-3.761 4.944-5.563 7.471-1.656 2.31-1.525 3.473.531 5.479z"/></symbol><symbol viewBox="0 0 128 128" id="warranty" xmlns="http://www.w3.org/2000/svg"><path d="M89.249 39.321a1.75 1.75 0 00-1.237.513L57.534 70.312l-17.54-17.541a1.8 1.8 0 00-2.474 0l-7.071 7.072a1.75 1.75 0 000 2.474L56.3 88.166a1.748 1.748 0 002.474 0L97.557 49.38a1.751 1.751 0 000-2.475l-7.071-7.071a1.75 1.75 0 00-1.237-.513zM57.534 84.454L34.161 61.08l4.6-4.6L56.3 74.023a1.748 1.748 0 002.474 0l30.475-30.477 4.6 4.6z"/><path d="M64 16.332A47.668 47.668 0 10111.668 64 47.722 47.722 0 0064 16.332zm0 91.836A44.168 44.168 0 11108.168 64 44.218 44.218 0 0164 108.168z"/><path d="M126.029 69.613a8.925 8.925 0 000-11.226l-2.868-3.58a5.483 5.483 0 01-.983-4.959l1.28-4.391a9.035 9.035 0 00-4.306-10.389l-4.007-2.2a5.482 5.482 0 01-2.815-4.2l-.5-4.555a8.924 8.924 0 00-7.941-7.941l-4.555-.5a5.479 5.479 0 01-4.2-2.814l-2.2-4.008a8.924 8.924 0 00-10.39-4.306l-4.39 1.279a5.491 5.491 0 01-4.961-.984l-3.58-2.868a8.928 8.928 0 00-11.226 0l-3.58 2.868a5.5 5.5 0 01-4.959.983l-4.391-1.28a9.033 9.033 0 00-10.389 4.306l-2.2 4.007a5.482 5.482 0 01-4.2 2.815l-4.555.5a8.924 8.924 0 00-7.941 7.941l-.5 4.555a5.479 5.479 0 01-2.814 4.2l-4.008 2.2a8.927 8.927 0 00-4.306 10.39l1.281 4.389a5.491 5.491 0 01-.984 4.961l-2.868 3.58a8.925 8.925 0 000 11.226l2.868 3.58a5.483 5.483 0 01.983 4.959l-1.28 4.391a9.035 9.035 0 004.304 10.39l4.007 2.2a5.482 5.482 0 012.815 4.2l.5 4.555a8.924 8.924 0 007.941 7.941l4.555.5a5.479 5.479 0 014.2 2.814l2.2 4.008a8.924 8.924 0 0010.39 4.306l4.389-1.281a5.5 5.5 0 014.961.984l3.58 2.868a8.925 8.925 0 0011.226 0l3.58-2.868a5.486 5.486 0 014.959-.983l4.391 1.28a8.926 8.926 0 0010.389-4.306l2.2-4.007a5.482 5.482 0 014.2-2.815l4.555-.5a8.924 8.924 0 007.941-7.941l.5-4.555a5.479 5.479 0 012.814-4.2l4.008-2.2a8.927 8.927 0 004.306-10.39l-1.281-4.389a5.491 5.491 0 01.984-4.961zm-5.6 1.393a8.993 8.993 0 00-1.612 8.128l1.282 4.389a5.447 5.447 0 01-2.628 6.339l-4.009 2.2a8.98 8.98 0 00-4.61 6.891l-.5 4.555a5.45 5.45 0 01-4.846 4.846l-4.556.5a8.984 8.984 0 00-6.89 4.611l-2.2 4.008a5.45 5.45 0 01-6.338 2.628l-4.39-1.281a8.984 8.984 0 00-8.127 1.611l-3.58 2.868a5.446 5.446 0 01-6.852 0l-3.58-2.868a8.991 8.991 0 00-8.128-1.612l-4.388 1.281a5.453 5.453 0 01-6.339-2.628l-2.2-4.009a8.98 8.98 0 00-6.891-4.61l-4.555-.5a5.45 5.45 0 01-4.846-4.846l-.5-4.556a8.984 8.984 0 00-4.611-6.89l-4.008-2.2A5.512 5.512 0 017.9 83.523l1.281-4.39a8.988 8.988 0 00-1.611-8.127l-2.87-3.58a5.448 5.448 0 010-6.852l2.868-3.58a8.993 8.993 0 001.612-8.128L7.9 44.477a5.447 5.447 0 012.628-6.339l4.009-2.2a8.98 8.98 0 004.61-6.891l.5-4.555a5.45 5.45 0 014.853-4.843l4.556-.5a8.984 8.984 0 006.89-4.611l2.2-4.008a5.516 5.516 0 016.331-2.63l4.39 1.281a8.986 8.986 0 008.127-1.611l3.58-2.87a5.447 5.447 0 016.852 0l3.58 2.868a9 9 0 008.128 1.612l4.389-1.28a5.454 5.454 0 016.339 2.628l2.2 4.009a8.98 8.98 0 006.891 4.61l4.555.5a5.45 5.45 0 014.846 4.846l.5 4.556a8.984 8.984 0 004.611 6.89l4.008 2.2a5.513 5.513 0 012.628 6.338l-1.281 4.39a8.988 8.988 0 001.611 8.127l2.868 3.58a5.448 5.448 0 010 6.852z"/></symbol><symbol viewBox="0 0 512 512" id="whatsapp" xmlns="http://www.w3.org/2000/svg"><path d="M256 0C114.637 0 0 114.637 0 256s114.637 256 256 256 256-114.637 256-256S397.363 0 256 0zm5.426 405.05c-.004 0 .004 0 0 0h-.063c-25.644-.01-50.843-6.44-73.222-18.644l-81.223 21.301 21.738-79.375c-13.41-23.227-20.465-49.578-20.453-76.574.035-84.453 68.77-153.16 153.223-153.16 40.984.015 79.457 15.968 108.383 44.918 28.93 28.953 44.851 67.437 44.836 108.363-.036 84.457-68.778 153.172-153.22 153.172zm0 0"/><path d="M261.477 124.469c-70.247 0-127.375 57.105-127.407 127.3-.007 24.055 6.727 47.481 19.473 67.75l3.027 4.817-12.867 46.98 48.2-12.64 4.652 2.758c19.55 11.601 41.965 17.738 64.816 17.746h.05c70.192 0 127.321-57.11 127.352-127.309.012-34.02-13.222-66.004-37.265-90.066-24.043-24.063-56.02-37.325-90.031-37.336zm74.906 182.035c-3.192 8.937-18.485 17.098-25.84 18.2-6.598.983-14.941 1.394-24.113-1.517-5.563-1.765-12.692-4.12-21.828-8.062-38.403-16.578-63.485-55.234-65.399-57.79-1.914-2.554-15.633-20.753-15.633-39.593 0-18.836 9.89-28.097 13.399-31.926 3.511-3.832 7.66-4.789 10.21-4.789 2.551 0 5.106.024 7.337.133 2.351.117 5.507-.894 8.613 6.57 3.191 7.665 10.848 26.5 11.805 28.415.957 1.917 1.593 4.152.32 6.707-1.277 2.554-5.52 8.066-9.57 13.09-1.7 2.105-3.914 3.98-1.68 7.812 2.23 3.828 9.918 16.363 21.297 26.512 14.625 13.039 26.96 17.078 30.789 18.996 3.824 1.914 6.058 1.593 8.293-.957 2.23-2.555 9.57-11.176 12.12-15.008 2.552-3.832 5.106-3.192 8.614-1.914 3.512 1.273 22.332 10.535 26.16 12.449 3.828 1.918 6.38 2.875 7.336 4.473.961 1.597.961 9.258-2.23 18.199zm0 0"/></symbol><symbol viewBox="0 0 396.819 396.819" id="zoom" xmlns="http://www.w3.org/2000/svg"><path d="M352.103 44.679c-59.237-59.401-155.412-59.535-214.813-.298-57.316 57.157-59.741 149.218-5.515 209.314l-11.6 11.6c-9.372-9.373-24.568-9.375-33.941-.003l-.003.003-79.2 79.2c-9.373 9.372-9.375 24.568-.003 33.941l.003.003 11.312 11.312c9.372 9.369 24.564 9.369 33.936 0l79.2-79.2c9.373-9.372 9.375-24.568.003-33.941l-.003-.003 11.6-11.6c62.24 56.247 158.292 51.388 214.539-10.851 54.33-60.119 51.903-152.3-5.515-209.477zM120.175 299.231l-79.2 79.2a8 8 0 01-11.312 0l-11.312-11.32a8 8 0 010-11.304l79.2-79.2a8.185 8.185 0 0111.312 0l11.312 11.32a8 8 0 010 11.304zm220.624-50.904c-53.112 53.11-139.223 53.109-192.333-.003s-53.109-139.223.003-192.333c53.111-53.109 139.219-53.109 192.33 0 53.025 53.148 53.025 139.188 0 192.336z"/><path d="M329.479 67.303l-11.312 11.312c40.545 40.644 40.545 106.436 0 147.08l11.312 11.312c46.796-46.89 46.796-122.814 0-169.704z"/></symbol></svg>