<svg id="Capa_1" enable-background="new 0 0 512 512" height="512" viewBox="0 0 512 512" width="512" xmlns="http://www.w3.org/2000/svg"><g><path d="m166 211h-75c-4.143 0-7.5 3.358-7.5 7.5v75c0 4.142 3.357 7.5 7.5 7.5h75c4.143 0 7.5-3.358 7.5-7.5v-75c0-4.142-3.357-7.5-7.5-7.5zm-7.5 75h-60v-60h60z"/><path d="m257 308.5c0-12.407-10.094-22.5-22.5-22.5h-31v-60h31c12.406 0 22.5-10.093 22.5-22.5s-10.094-22.5-22.5-22.5h-31v-31c0-12.407-10.094-22.5-22.5-22.5s-22.5 10.093-22.5 22.5v31h-60v-31c0-12.407-10.094-22.5-22.5-22.5s-22.5 10.093-22.5 22.5v31h-31c-12.406 0-22.5 10.093-22.5 22.5s10.094 22.5 22.5 22.5h31v60h-31c-12.406 0-22.5 10.093-22.5 22.5s10.094 22.5 22.5 22.5h31v31c0 12.407 10.094 22.5 22.5 22.5s22.5-10.093 22.5-22.5v-31h60v31c0 12.407 10.094 22.5 22.5 22.5s22.5-10.093 22.5-22.5v-31h31c12.406 0 22.5-10.093 22.5-22.5zm-61 7.5c-4.143 0-7.5 3.358-7.5 7.5v38.5c0 4.136-3.364 7.5-7.5 7.5s-7.5-3.364-7.5-7.5v-38.5c0-4.142-3.357-7.5-7.5-7.5h-75c-4.143 0-7.5 3.358-7.5 7.5v38.5c0 4.136-3.364 7.5-7.5 7.5s-7.5-3.364-7.5-7.5v-38.5c0-4.142-3.357-7.5-7.5-7.5h-38.5c-4.136 0-7.5-3.364-7.5-7.5s3.364-7.5 7.5-7.5h38.5c4.143 0 7.5-3.358 7.5-7.5v-75c0-4.142-3.357-7.5-7.5-7.5h-38.5c-4.136 0-7.5-3.364-7.5-7.5s3.364-7.5 7.5-7.5h38.5c4.143 0 7.5-3.358 7.5-7.5v-38.5c0-4.136 3.364-7.5 7.5-7.5s7.5 3.364 7.5 7.5v38.5c0 4.142 3.357 7.5 7.5 7.5h75c4.143 0 7.5-3.358 7.5-7.5v-38.5c0-4.136 3.364-7.5 7.5-7.5s7.5 3.364 7.5 7.5v38.5c0 4.142 3.357 7.5 7.5 7.5h38.5c4.136 0 7.5 3.364 7.5 7.5s-3.364 7.5-7.5 7.5h-38.5c-4.143 0-7.5 3.358-7.5 7.5v75c0 4.142 3.357 7.5 7.5 7.5h38.5c4.136 0 7.5 3.364 7.5 7.5s-3.364 7.5-7.5 7.5z"/><path d="m467 407.534v-355.034c0-28.949-23.552-52.5-52.5-52.5h-135c-28.948 0-52.5 23.551-52.5 52.5 0 26.402 19.592 48.315 45 51.966v303.068c-25.408 3.65-45 25.563-45 51.966 0 28.949 23.552 52.5 52.5 52.5h180c28.948 0 52.5-23.551 52.5-52.5 0-26.402-19.592-48.315-45-51.966zm-7.5 89.466h-180c-20.678 0-37.5-16.822-37.5-37.5s16.822-37.5 37.5-37.5c4.143 0 7.5-3.358 7.5-7.5v-317c0-4.142-3.357-7.5-7.5-7.5-20.678 0-37.5-16.822-37.5-37.5s16.822-37.5 37.5-37.5h135c20.678 0 37.5 16.822 37.5 37.5v362c0 4.142 3.357 7.5 7.5 7.5 20.678 0 37.5 16.822 37.5 37.5s-16.822 37.5-37.5 37.5z"/><path d="m459.5 437h-22.5v-384.5c0-12.407-10.094-22.5-22.5-22.5h-135c-12.406 0-22.5 10.093-22.5 22.5s10.094 22.5 22.5 22.5h22.5v166c0 4.142 3.357 7.5 7.5 7.5s7.5-3.358 7.5-7.5v-173.5c0-4.142-3.357-7.5-7.5-7.5h-30c-4.136 0-7.5-3.364-7.5-7.5s3.364-7.5 7.5-7.5h135c4.136 0 7.5 3.364 7.5 7.5v392c0 4.142 3.357 7.5 7.5 7.5h30c4.136 0 7.5 3.364 7.5 7.5s-3.364 7.5-7.5 7.5h-180c-4.136 0-7.5-3.364-7.5-7.5s3.364-7.5 7.5-7.5h30c4.143 0 7.5-3.358 7.5-7.5v-173.5c0-4.142-3.357-7.5-7.5-7.5s-7.5 3.358-7.5 7.5v166h-22.5c-12.406 0-22.5 10.093-22.5 22.5s10.094 22.5 22.5 22.5h180c12.406 0 22.5-10.093 22.5-22.5s-10.094-22.5-22.5-22.5z"/></g></svg>