<?xml version="1.0" encoding="UTF-8" standalone="no"?>
<svg
   xmlns:dc="http://purl.org/dc/elements/1.1/"
   xmlns:cc="http://creativecommons.org/ns#"
   xmlns:rdf="http://www.w3.org/1999/02/22-rdf-syntax-ns#"
   xmlns:svg="http://www.w3.org/2000/svg"
   xmlns="http://www.w3.org/2000/svg"
   version="1.1"
   id="Capa_1"
   x="0px"
   y="0px"
   viewBox="0 0 496 496"
   style="enable-background:new 0 0 496 496;"
   xml:space="preserve"><metadata
   id="metadata47"><rdf:RDF><cc:Work
       rdf:about=""><dc:format>image/svg+xml</dc:format><dc:type
         rdf:resource="http://purl.org/dc/dcmitype/StillImage" /><dc:title></dc:title></cc:Work></rdf:RDF></metadata><defs
   id="defs45" />
<g
   id="g10"
   style="fill:#064a9b;fill-opacity:1">
	<g
   id="g8"
   style="fill:#064a9b;fill-opacity:1">
		<g
   id="g6"
   style="fill:#064a9b;fill-opacity:1">
			<path
   d="M248,0C111.033,0,0,111.033,0,248s111.033,248,248,248s248-111.033,248-248C495.846,111.097,384.903,0.154,248,0z      M248,480C119.87,480,16,376.13,16,248S119.87,16,248,16s232,103.87,232,232C479.855,376.07,376.07,479.854,248,480z"
   id="path2"
   style="fill:#064a9b;fill-opacity:1" />
			<path
   d="M345.146,146.4c-1.908-0.764-4.037-0.764-5.946,0v0L86.928,246.168c-4.108,1.627-6.118,6.276-4.491,10.384     c0.77,1.944,2.27,3.508,4.179,4.36l102.784,45.68l45.688,102.792c1.284,2.89,4.15,4.752,7.312,4.752h0.168     c3.223-0.069,6.09-2.065,7.272-5.064L349.6,156.8C351.242,152.698,349.248,148.042,345.146,146.4z M241.968,385.464l-39.2-88.184     c-0.805-1.811-2.253-3.26-4.064-4.064l-88.176-39.2l217.376-85.92L241.968,385.464z"
   id="path4"
   style="fill:#535455;fill-opacity:1" />
		</g>
	</g>
</g>
<g
   id="g12">
</g>
<g
   id="g14">
</g>
<g
   id="g16">
</g>
<g
   id="g18">
</g>
<g
   id="g20">
</g>
<g
   id="g22">
</g>
<g
   id="g24">
</g>
<g
   id="g26">
</g>
<g
   id="g28">
</g>
<g
   id="g30">
</g>
<g
   id="g32">
</g>
<g
   id="g34">
</g>
<g
   id="g36">
</g>
<g
   id="g38">
</g>
<g
   id="g40">
</g>
</svg>
