<?xml version="1.0" encoding="UTF-8" standalone="no"?>
<svg
   xmlns:dc="http://purl.org/dc/elements/1.1/"
   xmlns:cc="http://creativecommons.org/ns#"
   xmlns:rdf="http://www.w3.org/1999/02/22-rdf-syntax-ns#"
   xmlns:svg="http://www.w3.org/2000/svg"
   xmlns="http://www.w3.org/2000/svg"
   height="480pt"
   viewBox="0 0 480 480"
   width="480pt"
   version="1.1"
   id="svg6">
  <metadata
     id="metadata12">
    <rdf:RDF>
      <cc:Work
         rdf:about="">
        <dc:format>image/svg+xml</dc:format>
        <dc:type
           rdf:resource="http://purl.org/dc/dcmitype/StillImage" />
        <dc:title></dc:title>
      </cc:Work>
    </rdf:RDF>
  </metadata>
  <defs
     id="defs10" />
  <path
     d="m240 0c-132.546875 0-240 107.453125-240 240s107.453125 240 240 240 240-107.453125 240-240c-.148438-132.484375-107.515625-239.851562-240-240zm0 464c-123.710938 0-224-100.289062-224-224s100.289062-224 224-224 224 100.289062 224 224c-.140625 123.652344-100.347656 223.859375-224 224zm0 0"
     id="path2"
     style="fill:#064a9b;fill-opacity:1" />
  <path
     d="m352 144h-224c-4.417969 0-8 3.582031-8 8v176c0 4.417969 3.582031 8 8 8h224c4.417969 0 8-3.582031 8-8v-176c0-4.417969-3.582031-8-8-8zm-21.601562 16-90.398438 77.464844-90.398438-77.464844zm-194.398438 160v-150.609375l98.792969 84.679687c2.992187 2.5625 7.40625 2.5625 10.398437 0l98.808594-84.679687v150.609375zm0 0"
     id="path4"
     style="fill:#535455;fill-opacity:1" />
</svg>
