<?xml version="1.0" encoding="UTF-8" standalone="no"?>
<svg
   xmlns:dc="http://purl.org/dc/elements/1.1/"
   xmlns:cc="http://creativecommons.org/ns#"
   xmlns:rdf="http://www.w3.org/1999/02/22-rdf-syntax-ns#"
   xmlns:svg="http://www.w3.org/2000/svg"
   xmlns="http://www.w3.org/2000/svg"
   id="Layer_2"
   height="512"
   viewBox="0 0 128 128"
   width="512"
   data-name="Layer 2"
   version="1.1">
  <metadata
     id="metadata15">
    <rdf:RDF>
      <cc:Work
         rdf:about="">
        <dc:format>image/svg+xml</dc:format>
        <dc:type
           rdf:resource="http://purl.org/dc/dcmitype/StillImage" />
        <dc:title></dc:title>
      </cc:Work>
    </rdf:RDF>
  </metadata>
  <defs
     id="defs13" />
  <g
     id="g1171">
    <path
       id="path893"
       style="color:#000000;font-style:normal;font-variant:normal;font-weight:normal;font-stretch:normal;font-size:medium;line-height:normal;font-family:sans-serif;font-variant-ligatures:normal;font-variant-position:normal;font-variant-caps:normal;font-variant-numeric:normal;font-variant-alternates:normal;font-variant-east-asian:normal;font-feature-settings:normal;font-variation-settings:normal;text-indent:0;text-align:start;text-decoration:none;text-decoration-line:none;text-decoration-style:solid;text-decoration-color:#000000;letter-spacing:normal;word-spacing:normal;text-transform:none;writing-mode:lr-tb;direction:ltr;text-orientation:mixed;dominant-baseline:auto;baseline-shift:baseline;text-anchor:start;white-space:normal;shape-padding:0;shape-margin:0;inline-size:0;clip-rule:nonzero;display:inline;overflow:visible;visibility:visible;opacity:1;isolation:auto;mix-blend-mode:normal;color-interpolation:sRGB;color-interpolation-filters:linearRGB;solid-color:#000000;solid-opacity:1;vector-effect:none;fill:#064a9b;fill-opacity:1;fill-rule:nonzero;stroke:none;stroke-width:1;stroke-linecap:butt;stroke-linejoin:miter;stroke-miterlimit:4;stroke-dasharray:none;stroke-dashoffset:0;stroke-opacity:1;color-rendering:auto;image-rendering:auto;shape-rendering:auto;text-rendering:auto;enable-background:accumulate;stop-color:#000000;stop-opacity:1"
       d="m 89.250752,75.072324 c -1.103075,0.03281 -2.253675,0.277795 -3.40285,0.838867 l -0.04297,0.02148 -9.27685,5.254395 -11.863762,-0.381347 c -3.29816,-0.25765 -5.34094,-1.62231 -8.30664,-2.9375 -2.22631,-0.9873 -4.914888,-1.841295 -8.660158,-1.865235 -1.24842,-0.008 -2.61411,0.07693 -4.11914,0.279297 h -0.01172 l -0.0098,0.002 c -4.3611,0.65128 -7.685922,3.092975 -10.70117,5.484375 -2.602795,2.064287 -5.011732,4.091765 -7.631837,5.259277 L 22.881112,79.417051 H 2.931893 l 0.21289,1.6875 5.84961,46.509769 H 37.71705 L 33.92457,115.2945 c 0.884592,-0.75313 2.733005,-2.29855 4.800292,-3.84424 1.43058,-1.06962 2.950393,-2.12367 4.240235,-2.86133 1.289828,-0.73766 2.492968,-1.0183 2.460935,-1.02148 l 0.03711,0.004 0.03711,0.002 c 2.3297,0.11257 7.030805,1.24166 12.447265,2.40039 5.41646,1.15872 11.642585,2.33623 17.552735,2.48047 h 0.03515 0.0332 c 6.29245,-0.13236 13.132825,-4.29688 13.132825,-4.29688 l 0.04883,-0.0293 34.812493,-24.093751 -0.85352,-1.234375 c 0,0 -1.25203,-1.82799 -3.36523,-3.30078 -1.5849,-1.104593 -3.81857,-2.046045 -6.3164,-1.796875 -0.83262,0.08306 -1.69335,0.297672 -2.57032,0.683592 l -0.0606,0.02734 -1.63183,0.895997 c -0.5965,-0.512262 -1.4281,-1.153452 -2.4248,-1.720215 -1.02602,-0.58343 -2.29362,-1.111735 -3.66992,-1.302735 -1.37633,-0.191 -2.861148,-0.04511 -4.324223,0.714845 l -0.01953,0.0098 -1.522475,0.84961 c -0.62655,-0.485502 -1.5455,-1.121405 -2.670875,-1.664062 -1.0699,-0.51588 -2.375775,-0.960568 -3.7969,-1.089845 -0.355275,-0.03232 -0.71775,-0.04511 -1.085425,-0.03418 z m 0.1533,2.987305 c 1.218475,-0.03123 2.385925,0.338187 3.426275,0.839845 0.38705,0.186625 0.7405,0.387102 1.06105,0.585447 l -6.47365,3.61133 c -1.001075,-0.803867 -2.198925,-1.415492 -3.634275,-1.661622 l -0.10155,-0.01758 -1.39405,-0.04492 4.884275,-2.765625 c 0.751475,-0.365115 1.50085,-0.528135 2.231925,-0.546875 z m -41.720695,0.92627 c 3.282085,-0.0034 5.436333,0.72731 7.459473,1.624512 2.6993,1.19705 5.269177,2.8754 9.298827,3.1875 l 0.0332,0.002 18.845715,0.607422 c 2.2416,0.40857 3.751625,2.357828 4.73045,4.480468 0.571175,1.23859 0.565275,1.626907 0.757825,2.42383 0,0 -12.367213,-2.095235 -20.78125,-0.310548 l -0.04493,3 c 6.63781,-1.880423 21.388993,0.597124 24.613275,0.36914 l -0.271465,-1.755907 c 0,0 -0.047,-0.296817 -0.1504,-0.77002 L 111.6897,81.124084 c 2.39685,-1.042813 4.33048,-0.285433 5.93945,0.835935 0.93893,0.65436 1.07263,0.96358 1.51953,1.48047 L 87.154552,105.58307 c -0.05555,0.0311 -6.718425,3.75229 -11.62305,3.86719 -5.548575,-0.14032 -11.609862,-1.26625 -16.95703,-2.41016 -5.333472,-1.14097 -9.850885,-2.30155 -12.871095,-2.45703 -1.55172,-0.14714 -2.760462,0.56193 -4.226562,1.40039 -1.47207,0.84188 -3.061278,1.95223 -4.548828,3.06446 -1.533275,1.1464 -2.940237,2.28478 -3.961427,3.13281 L 26.112557,89.914609 c 3.310878,-1.376165 5.981685,-3.71313 8.608398,-5.796385 2.94068,-2.33226 5.78205,-4.339003 9.267577,-4.863283 1.381643,-0.185357 2.600798,-0.267905 3.694825,-0.269042 z m 54.010743,0.21045 c 1.09068,0.01423 2.16658,0.433075 3.16358,1 0.38255,0.217532 0.7351,0.450877 1.05322,0.680175 l -14.612798,8.02588 c -0.155475,-0.413748 -0.3244,-0.836748 -0.524425,-1.27051 -0.341375,-0.74029 -0.764275,-1.514873 -1.27685,-2.258788 l 10.23195,-5.709962 c 0.651173,-0.338243 1.310923,-0.475335 1.965323,-0.466795 z M 6.334238,82.417051 H 20.666267 L 33.65455,124.61432 H 11.640877 Z" />
    <g
       id="g1165"
       transform="translate(-141.67748,17.74127)">
      <path
         id="path924"
         style="color:#000000;font-style:normal;font-variant:normal;font-weight:normal;font-stretch:normal;font-size:medium;line-height:normal;font-family:sans-serif;font-variant-ligatures:normal;font-variant-position:normal;font-variant-caps:normal;font-variant-numeric:normal;font-variant-alternates:normal;font-variant-east-asian:normal;font-feature-settings:normal;font-variation-settings:normal;text-indent:0;text-align:start;text-decoration:none;text-decoration-line:none;text-decoration-style:solid;text-decoration-color:#000000;letter-spacing:normal;word-spacing:normal;text-transform:none;writing-mode:lr-tb;direction:ltr;text-orientation:mixed;dominant-baseline:auto;baseline-shift:baseline;text-anchor:start;white-space:normal;shape-padding:0;shape-margin:0;inline-size:0;clip-rule:nonzero;display:inline;overflow:visible;visibility:visible;opacity:1;isolation:auto;mix-blend-mode:normal;color-interpolation:sRGB;color-interpolation-filters:linearRGB;solid-color:#000000;solid-opacity:1;vector-effect:none;fill:#064a9b;fill-opacity:1;fill-rule:nonzero;stroke:none;stroke-width:4;stroke-linecap:butt;stroke-linejoin:round;stroke-miterlimit:4;stroke-dasharray:none;stroke-dashoffset:0;stroke-opacity:1;color-rendering:auto;image-rendering:auto;shape-rendering:auto;text-rendering:auto;enable-background:accumulate;stop-color:#000000;stop-opacity:1"
         d="m 827.11719,-54.992188 c -4.39096,0 -8.11719,3.718424 -8.11719,8.109376 v 17.58789 c -9.32841,2.472347 -18.15343,6.184734 -26.28906,10.955078 l -12.76953,-12.771484 c -1.55231,-1.552574 -3.64487,-2.329657 -5.73829,-2.330078 -2.09339,-4.21e-4 -4.18765,0.77582 -5.74023,2.328125 L 740.7168,-3.3710938 c -3.10515,3.10460862 -3.10081,8.3675096 0.004,11.4726563 l 13.09961,13.1015625 c -4.26718,7.56726 -7.62676,15.711036 -9.93945,24.28125 h -18.20117 c -4.39096,0 -8.10938,3.718423 -8.10938,8.109375 v 39.234375 c 0,4.390952 3.71842,8.117185 8.10938,8.117185 h 18.27539 c 2.4381,8.95513 6.01822,17.46205 10.57226,25.31641 l -13.83398,13.83203 c -3.10515,3.10461 -3.10079,8.36751 0.004,11.47266 l 27.74023,27.74609 c 3.10461,3.10515 8.3636,3.10651 11.46875,0.002 l 14.02344,-14.02148 c 7.7967,4.43444 16.18668,7.85506 25.07031,10.17773 v 18.81055 c 0,4.39095 3.72623,8.11719 8.11719,8.11719 h 39.23437 c 4.39096,0 8.10938,-3.72624 8.10938,-8.11719 v -19.07422 c 8.41814,-2.24894 16.30318,-5.44039 23.70117,-9.63476 l 13.07227,13.07421 c 3.10458,3.10512 8.36946,3.11033 11.4746,0.006 l 27.7461,-27.74023 c 3.10514,-3.10461 3.10458,-8.37535 0,-11.48047 l -12.9336,-12.93359 c 4.54862,-7.91444 8.24291,-16.58368 10.74414,-25.55274 h 18.57813 c 4.39096,0 8.11719,-3.726233 8.11719,-8.117185 V 53.59375 c 0,-4.390952 -3.72623,-8.109375 -8.11719,-8.109375 H 948.39062 C 946.05117,36.815186 942.64216,28.582557 938.30469,20.941406 L 950.44922,8.7988281 c 3.10515,-3.1046088 3.11223,-8.36750992 0.008,-11.4726562 L 922.7168,-30.419922 c -1.55231,-1.552573 -3.64634,-2.328192 -5.74024,-2.328125 -2.0939,6.7e-5 -4.18766,0.775821 -5.74023,2.328125 l -11.92383,11.921875 c -7.71953,-4.497782 -16.05634,-8.043023 -24.85156,-10.484375 v -17.90039 c 0,-4.390952 -3.71842,-8.109376 -8.10938,-8.109376 z m 3.88281,12 h 31.46094 c -0.12494,7.941021 0.0599,15.748781 0.17578,23.597657 14.02741,2.476751 26.96963,8.057004 38.09766,16.0097654 5.56808,-5.1047472 10.77897,-10.3443514 16.24023,-15.8046874 L 939.2207,3.0585938 c -5.52195,5.4032949 -10.68442,10.6297442 -16.08593,16.1835942 7.79862,11.145476 13.23271,24.068313 15.58984,38.050781 l 6.41992,0.109375 c 0.004,0.02739 0.009,0.05464 0.0137,0.08203 5.94531,0.01211 11.84418,0 17.80274,0 v 31.460937 c -8.17596,-0.166235 -16.19606,0.07114 -24.28321,0.191407 -2.38851,13.904432 -8.28672,27.754412 -16.06054,38.841802 5.25752,6.17135 10.63838,11.22236 16.60742,17.1914 l -22.24805,22.2461 c -5.99197,-5.76406 -11.04785,-11.44634 -16.77734,-17.47071 -11.10041,7.90915 -23.57801,13.12826 -37.55469,15.59766 -0.24114,8.26951 -0.18359,16.4969 -0.18359,24.85547 H 831 c 0.0382,-8.25363 -0.028,-16.46715 -0.0332,-24.69336 -14.19884,-2.33057 -27.51823,-7.80853 -38.80469,-15.73828 -5.91334,6.11807 -11.97108,12.09396 -17.98828,18.10937 l -22.24414,-22.24805 c 5.89063,-5.99625 12.16158,-12.5864 17.62304,-18.33593 -7.96638,-11.20121 -13.52881,-24.23338 -15.95507,-38.349613 -7.98508,-0.253319 -15.93244,-0.197266 -24.02735,-0.197266 V 57.484375 c 8.09007,0.199413 16.01284,-0.08289 23.98242,-0.21875 2.33137,-13.802508 7.66322,-26.571604 15.30665,-37.617187 C 763.04267,13.527477 758.16261,8.6703455 751.95312,2.3632812 l 22.24805,-22.2441402 c 5.59261,5.757184 11.22758,11.2136637 16.95117,16.7812496 11.51883,-8.3211236 25.00654,-14.0892026 39.64258,-16.4863286 C 831.06785,-27.361844 831,-35.103908 831,-42.992188 Z m 15.66406,38.945313 c -42.5656,0 -77.19531,34.637544 -77.19531,77.203125 0,42.56558 34.62971,77.19531 77.19531,77.19531 42.56556,0 77.20313,-34.62973 77.20313,-77.19531 0,-42.565581 -34.63757,-77.203125 -77.20313,-77.203125 z m 0,12 c 36.08028,4e-7 65.20313,29.122825 65.20313,65.203125 0,36.0803 -29.12285,65.19531 -65.20313,65.19531 -36.08032,0 -65.19531,-29.11501 -65.19531,-65.19531 0,-36.0803 29.11499,-65.203125 65.19531,-65.203125 z"
         transform="scale(0.25)" />
      <path
         style="color:#000000;font-style:normal;font-variant:normal;font-weight:normal;font-stretch:normal;font-size:medium;line-height:normal;font-family:sans-serif;font-variant-ligatures:normal;font-variant-position:normal;font-variant-caps:normal;font-variant-numeric:normal;font-variant-alternates:normal;font-variant-east-asian:normal;font-feature-settings:normal;font-variation-settings:normal;text-indent:0;text-align:start;text-decoration:none;text-decoration-line:none;text-decoration-style:solid;text-decoration-color:#000000;letter-spacing:normal;word-spacing:normal;text-transform:none;writing-mode:lr-tb;direction:ltr;text-orientation:mixed;dominant-baseline:auto;baseline-shift:baseline;text-anchor:start;white-space:normal;shape-padding:0;shape-margin:0;inline-size:0;clip-rule:nonzero;display:inline;overflow:visible;visibility:visible;opacity:1;isolation:auto;mix-blend-mode:normal;color-interpolation:sRGB;color-interpolation-filters:linearRGB;solid-color:#000000;solid-opacity:1;vector-effect:none;fill:#d10016;fill-opacity:1;fill-rule:nonzero;stroke:none;stroke-linecap:round;stroke-linejoin:round;stroke-miterlimit:4;stroke-dasharray:none;stroke-dashoffset:0;stroke-opacity:1;color-rendering:auto;image-rendering:auto;shape-rendering:auto;text-rendering:auto;enable-background:accumulate;stop-color:#000000;stop-opacity:1"
         d="m 219.02051,12.693359 a 1.5,1.5 0 0 0 -1.01758,0.404297 l -8.55664,7.988281 -4.45899,-4.40625 a 1.5,1.5 0 0 0 -2.12109,0.01172 1.5,1.5 0 0 0 0.0137,2.121094 l 5.48242,5.419921 a 1.50015,1.50015 0 0 0 2.07813,0.0293 l 9.60937,-8.972656 a 1.5,1.5 0 0 0 0.0723,-2.119141 1.5,1.5 0 0 0 -1.10156,-0.476562 z"
         id="path1153" />
    </g>
  </g>
  <path
     id="path1159"
     style="fill:#d10016;fill-opacity:1;stroke:none;stroke-width:3;stroke-linecap:round;stroke-linejoin:round;stroke-miterlimit:4;stroke-dasharray:none;stroke-opacity:1"
     d="m 28.053957,116.82184 a 6.1147461,6.1147461 0 0 1 -6.11474,6.11475 6.1147461,6.1147461 0 0 1 -6.11475,-6.11475 6.1147461,6.1147461 0 0 1 6.11475,-6.11474 6.1147461,6.1147461 0 0 1 6.11474,6.11474 z" />
</svg>
