<svg width="241" height="49" viewBox="0 0 241 49" xmlns="http://www.w3.org/2000/svg">
<path d="M119 15.5L104.5 0H116L130.5 15.5L116 32H104.5L119 15.5Z" />
<path d="M130.5 32L145 16.5H133.5L119 32L133.5 48.5H145L130.5 32Z" />
<path d="M13.1211 24.5H17.4922L15.5469 7.58984H10.2852L0.863281 24.5H5.41016L7.32031 20.7852H12.8398L13.1211 24.5ZM12.1016 11.3633H12.1953L12.6641 17.6914H8.87891L12.1016 11.3633ZM27.1236 24.5L29.983 11.0469H34.8463L35.5845 7.58984H21.5455L20.8072 11.0469H25.6705L22.8228 24.5H27.1236ZM49.0363 24.5L52.6339 7.58984H40.2238L37.7159 17.3164C37.1652 19.4492 36.3097 20.9023 34.8566 20.9023C34.4933 20.9023 34.1886 20.8438 34.0128 20.8086L33.2159 24.5C33.4386 24.5703 33.9894 24.6641 34.6925 24.6641C38.7472 24.6641 40.4113 22.0742 41.5831 17.6328L43.3175 11.0469H47.5948L44.7355 24.5H49.0363ZM64.363 24.5H68.7341L66.7887 7.58984H61.527L52.1052 24.5H56.652L58.5622 20.7852H64.0817L64.363 24.5ZM63.3434 11.3633H63.4372L63.9059 17.6914H60.1208L63.3434 11.3633ZM87.1428 24.5L90.7405 7.58984H86.3459L84.9163 14.2461H78.3655L79.7952 7.58984H75.4006L71.803 24.5H76.1975L77.6623 17.6562H84.2014L82.7483 24.5H87.1428ZM99.7273 24.5L102.587 11.0469H107.45L108.188 7.58984H94.1492L93.4109 11.0469H98.2742L95.4266 24.5H99.7273Z" />
<path d="M13.1211 24.5L12.9217 24.5151L12.9357 24.7H13.1211V24.5ZM17.4922 24.5V24.7H17.7165L17.6909 24.4771L17.4922 24.5ZM15.5469 7.58984L15.7456 7.56699L15.7252 7.38984H15.5469V7.58984ZM10.2852 7.58984V7.38984H10.1676L10.1104 7.4925L10.2852 7.58984ZM0.863281 24.5L0.68857 24.4027L0.522898 24.7H0.863281V24.5ZM5.41016 24.5V24.7H5.53221L5.58802 24.5915L5.41016 24.5ZM7.32031 20.7852V20.5852H7.19826L7.14245 20.6937L7.32031 20.7852ZM12.8398 20.7852L13.0393 20.7701L13.0253 20.5852H12.8398V20.7852ZM12.1016 11.3633V11.1633H11.979L11.9233 11.2725L12.1016 11.3633ZM12.1953 11.3633L12.3948 11.3485L12.381 11.1633H12.1953V11.3633ZM12.6641 17.6914V17.8914H12.8794L12.8635 17.6766L12.6641 17.6914ZM8.87891 17.6914L8.70069 17.6006L8.55261 17.8914H8.87891V17.6914ZM13.1211 24.7H17.4922V24.3H13.1211V24.7ZM17.6909 24.4771L15.7456 7.56699L15.3482 7.6127L17.2935 24.5229L17.6909 24.4771ZM15.5469 7.38984H10.2852V7.78984H15.5469V7.38984ZM10.1104 7.4925L0.68857 24.4027L1.03799 24.5973L10.4599 7.68719L10.1104 7.4925ZM0.863281 24.7H5.41016V24.3H0.863281V24.7ZM5.58802 24.5915L7.49818 20.8766L7.14245 20.6937L5.23229 24.4085L5.58802 24.5915ZM7.32031 20.9852H12.8398V20.5852H7.32031V20.9852ZM12.6404 20.8003L12.9217 24.5151L13.3205 24.4849L13.0393 20.7701L12.6404 20.8003ZM12.1016 11.5633H12.1953V11.1633H12.1016V11.5633ZM11.9959 11.3781L12.4646 17.7062L12.8635 17.6766L12.3948 11.3485L11.9959 11.3781ZM12.6641 17.4914H8.87891V17.8914H12.6641V17.4914ZM9.05713 17.7822L12.2798 11.454L11.9233 11.2725L8.70069 17.6006L9.05713 17.7822ZM27.1236 24.5V24.7H27.2856L27.3192 24.5416L27.1236 24.5ZM29.983 11.0469V10.8469H29.821L29.7873 11.0053L29.983 11.0469ZM34.8463 11.0469V11.2469H35.008L35.0418 11.0886L34.8463 11.0469ZM35.5845 7.58984L35.7801 7.63161L35.8318 7.38984H35.5845V7.58984ZM21.5455 7.58984V7.38984H21.3837L21.3499 7.54807L21.5455 7.58984ZM20.8072 11.0469L20.6116 11.0051L20.56 11.2469H20.8072V11.0469ZM25.6705 11.0469L25.8661 11.0883L25.9172 10.8469H25.6705V11.0469ZM22.8228 24.5L22.6271 24.4586L22.576 24.7H22.8228V24.5ZM27.3192 24.5416L30.1786 11.0885L29.7873 11.0053L26.928 24.4584L27.3192 24.5416ZM29.983 11.2469H34.8463V10.8469H29.983V11.2469ZM35.0418 11.0886L35.7801 7.63161L35.3889 7.54807L34.6507 11.0051L35.0418 11.0886ZM35.5845 7.38984H21.5455V7.78984H35.5845V7.38984ZM21.3499 7.54807L20.6116 11.0051L21.0028 11.0886L21.7411 7.63161L21.3499 7.54807ZM20.8072 11.2469H25.6705V10.8469H20.8072V11.2469ZM25.4748 11.0055L22.6271 24.4586L23.0185 24.5414L25.8661 11.0883L25.4748 11.0055ZM22.8228 24.7H27.1236V24.3H22.8228V24.7ZM49.0363 24.5V24.7H49.1982L49.2319 24.5416L49.0363 24.5ZM52.6339 7.58984L52.8295 7.63146L52.8809 7.38984H52.6339V7.58984ZM40.2238 7.58984V7.38984H40.0688L40.0301 7.53991L40.2238 7.58984ZM37.7159 17.3164L37.9096 17.3664L37.9096 17.3663L37.7159 17.3164ZM34.0128 20.8086L34.052 20.6125L33.8589 20.5738L33.8173 20.7664L34.0128 20.8086ZM33.2159 24.5L33.0204 24.4578L32.982 24.6359L33.1557 24.6907L33.2159 24.5ZM41.5831 17.6328L41.7765 17.6838L41.7765 17.6837L41.5831 17.6328ZM43.3175 11.0469V10.8469H43.1634L43.1241 10.9959L43.3175 11.0469ZM47.5948 11.0469L47.7905 11.0885L47.8418 10.8469H47.5948V11.0469ZM44.7355 24.5L44.5398 24.4584L44.4885 24.7H44.7355V24.5ZM49.2319 24.5416L52.8295 7.63146L52.4383 7.54822L48.8406 24.4584L49.2319 24.5416ZM52.6339 7.38984H40.2238V7.78984H52.6339V7.38984ZM40.0301 7.53991L37.5223 17.2665L37.9096 17.3663L40.4174 7.63978L40.0301 7.53991ZM37.5223 17.2664C37.2493 18.3235 36.9056 19.191 36.4636 19.7905C36.0264 20.3836 35.5036 20.7023 34.8566 20.7023V21.1023C35.6626 21.1023 36.2942 20.6945 36.7856 20.0279C37.2724 19.3676 37.6318 18.4421 37.9096 17.3664L37.5223 17.2664ZM34.8566 20.7023C34.5139 20.7023 34.2251 20.6471 34.052 20.6125L33.9736 21.0047C34.1521 21.0404 34.4727 21.1023 34.8566 21.1023V20.7023ZM33.8173 20.7664L33.0204 24.4578L33.4114 24.5422L34.2083 20.8508L33.8173 20.7664ZM33.1557 24.6907C33.4041 24.7691 33.9767 24.8641 34.6925 24.8641V24.4641C34.0021 24.4641 33.4731 24.3715 33.2762 24.3093L33.1557 24.6907ZM34.6925 24.8641C36.7695 24.8641 38.2563 24.1975 39.3683 22.9469C40.4701 21.7078 41.1887 19.9118 41.7765 17.6838L41.3897 17.5818C40.8057 19.7953 40.1063 21.5149 39.0694 22.6811C38.0427 23.8357 36.6702 24.4641 34.6925 24.4641V24.8641ZM41.7765 17.6837L43.5109 11.0978L43.1241 10.9959L41.3897 17.5819L41.7765 17.6837ZM43.3175 11.2469H47.5948V10.8469H43.3175V11.2469ZM47.3992 11.0053L44.5398 24.4584L44.9311 24.5416L47.7905 11.0885L47.3992 11.0053ZM44.7355 24.7H49.0363V24.3H44.7355V24.7ZM64.363 24.5L64.1635 24.5151L64.1775 24.7H64.363V24.5ZM68.7341 24.5V24.7H68.9584L68.9328 24.4771L68.7341 24.5ZM66.7887 7.58984L66.9874 7.56699L66.9671 7.38984H66.7887V7.58984ZM61.527 7.58984V7.38984H61.4095L61.3523 7.4925L61.527 7.58984ZM52.1052 24.5L51.9304 24.4027L51.7648 24.7H52.1052V24.5ZM56.652 24.5V24.7H56.7741L56.8299 24.5915L56.652 24.5ZM58.5622 20.7852V20.5852H58.4401L58.3843 20.6937L58.5622 20.7852ZM64.0817 20.7852L64.2811 20.7701L64.2671 20.5852H64.0817V20.7852ZM63.3434 11.3633V11.1633H63.2208L63.1652 11.2725L63.3434 11.3633ZM63.4372 11.3633L63.6366 11.3485L63.6229 11.1633H63.4372V11.3633ZM63.9059 17.6914V17.8914H64.1213L64.1054 17.6766L63.9059 17.6914ZM60.1208 17.6914L59.9426 17.6006L59.7945 17.8914H60.1208V17.6914ZM64.363 24.7H68.7341V24.3H64.363V24.7ZM68.9328 24.4771L66.9874 7.56699L66.5901 7.6127L68.5354 24.5229L68.9328 24.4771ZM66.7887 7.38984H61.527V7.78984H66.7887V7.38984ZM61.3523 7.4925L51.9304 24.4027L52.2799 24.5973L61.7017 7.68719L61.3523 7.4925ZM52.1052 24.7H56.652V24.3H52.1052V24.7ZM56.8299 24.5915L58.7401 20.8766L58.3843 20.6937L56.4742 24.4085L56.8299 24.5915ZM58.5622 20.9852H64.0817V20.5852H58.5622V20.9852ZM63.8823 20.8003L64.1635 24.5151L64.5624 24.4849L64.2811 20.7701L63.8823 20.8003ZM63.3434 11.5633H63.4372V11.1633H63.3434V11.5633ZM63.2377 11.3781L63.7065 17.7062L64.1054 17.6766L63.6366 11.3485L63.2377 11.3781ZM63.9059 17.4914H60.1208V17.8914H63.9059V17.4914ZM60.299 17.7822L63.5217 11.454L63.1652 11.2725L59.9426 17.6006L60.299 17.7822ZM87.1428 24.5V24.7H87.3047L87.3384 24.5416L87.1428 24.5ZM90.7405 7.58984L90.9361 7.63146L90.9875 7.38984H90.7405V7.58984ZM86.3459 7.58984V7.38984H86.1843L86.1504 7.54784L86.3459 7.58984ZM84.9163 14.2461V14.4461H85.0779L85.1118 14.2881L84.9163 14.2461ZM78.3655 14.2461L78.1699 14.2041L78.118 14.4461H78.3655V14.2461ZM79.7952 7.58984L79.9907 7.63184L80.0427 7.38984H79.7952V7.58984ZM75.4006 7.58984V7.38984H75.2387L75.205 7.54822L75.4006 7.58984ZM71.803 24.5L71.6073 24.4584L71.5559 24.7H71.803V24.5ZM76.1975 24.5V24.7H76.3592L76.3931 24.5419L76.1975 24.5ZM77.6623 17.6562V17.4562H77.5006L77.4668 17.6144L77.6623 17.6562ZM84.2014 17.6562L84.397 17.6978L84.4483 17.4562H84.2014V17.6562ZM82.7483 24.5L82.5526 24.4585L82.5014 24.7H82.7483V24.5ZM87.3384 24.5416L90.9361 7.63146L90.5448 7.54822L86.9472 24.4584L87.3384 24.5416ZM90.7405 7.38984H86.3459V7.78984H90.7405V7.38984ZM86.1504 7.54784L84.7207 14.2041L85.1118 14.2881L86.5415 7.63184L86.1504 7.54784ZM84.9163 14.0461H78.3655V14.4461H84.9163V14.0461ZM78.561 14.2881L79.9907 7.63184L79.5996 7.54784L78.1699 14.2041L78.561 14.2881ZM79.7952 7.38984H75.4006V7.78984H79.7952V7.38984ZM75.205 7.54822L71.6073 24.4584L71.9986 24.5416L75.5962 7.63146L75.205 7.54822ZM71.803 24.7H76.1975V24.3H71.803V24.7ZM76.3931 24.5419L77.8579 17.6981L77.4668 17.6144L76.0019 24.4581L76.3931 24.5419ZM77.6623 17.8563H84.2014V17.4562H77.6623V17.8563ZM84.0058 17.6147L82.5526 24.4585L82.9439 24.5415L84.397 17.6978L84.0058 17.6147ZM82.7483 24.7H87.1428V24.3H82.7483V24.7ZM99.7273 24.5V24.7H99.8893L99.923 24.5416L99.7273 24.5ZM102.587 11.0469V10.8469H102.425L102.391 11.0053L102.587 11.0469ZM107.45 11.0469V11.2469H107.612L107.646 11.0886L107.45 11.0469ZM108.188 7.58984L108.384 7.63161L108.435 7.38984H108.188V7.58984ZM94.1492 7.58984V7.38984H93.9874L93.9536 7.54807L94.1492 7.58984ZM93.4109 11.0469L93.2153 11.0051L93.1637 11.2469H93.4109V11.0469ZM98.2742 11.0469L98.4699 11.0883L98.521 10.8469H98.2742V11.0469ZM95.4266 24.5L95.2309 24.4586L95.1798 24.7H95.4266V24.5ZM99.923 24.5416L102.782 11.0885L102.391 11.0053L99.5317 24.4584L99.923 24.5416ZM102.587 11.2469H107.45V10.8469H102.587V11.2469ZM107.646 11.0886L108.384 7.63161L107.993 7.54807L107.254 11.0051L107.646 11.0886ZM108.188 7.38984H94.1492V7.78984H108.188V7.38984ZM93.9536 7.54807L93.2153 11.0051L93.6065 11.0886L94.3448 7.63161L93.9536 7.54807ZM93.4109 11.2469H98.2742V10.8469H93.4109V11.2469ZM98.0786 11.0055L95.2309 24.4586L95.6222 24.5414L98.4699 11.0883L98.0786 11.0055ZM95.4266 24.7H99.7273V24.3H95.4266V24.7Z" />
<path d="M152.57 31.082H156.754C156.777 30.918 156.801 30.6953 156.801 30.4258C156.742 26.8281 153.871 24.2969 149.887 24.2969C144.086 24.2969 140.289 28.4336 140.289 34.6328C140.289 38.9805 143.184 41.793 147.648 41.793C151.938 41.793 155.242 39.2266 155.898 35.3945H151.715C151.152 37.1523 149.711 38.2422 147.918 38.2422C145.926 38.2422 144.707 36.7773 144.707 34.3867C144.707 30.5547 146.676 27.8125 149.477 27.8125C151.199 27.8125 152.523 28.9961 152.57 30.6484C152.582 30.9414 152.582 31.0117 152.57 31.082ZM169.404 38.043H162.127L162.865 34.5859H169.709L170.377 31.4219H163.533L164.248 28.0469H171.525L172.263 24.5898H160.685L157.088 41.5H168.677L169.404 38.043ZM175.011 24.5898L171.425 41.5H175.726L176.781 36.543H179.582C184.21 36.543 187.222 33.918 187.222 29.6875C187.222 26.6172 184.996 24.5898 181.316 24.5898H175.011ZM178.609 27.8945H180.425C181.996 27.8945 182.898 28.6211 182.898 30.0742C182.898 31.9727 181.597 33.2969 179.582 33.2969H177.46L178.609 27.8945ZM196.04 41.5C199.755 41.5 202.404 39.25 202.404 36.1094C202.404 34.375 201.126 33.0742 199.322 32.6875L199.333 32.6055C201.618 32.1484 203.247 30.4609 203.247 28.2227C203.247 26.1484 201.513 24.5898 198.314 24.5898H190.908L187.31 41.5H196.04ZM194.517 27.3789H196.79C198.208 27.3789 198.947 28.0117 198.947 29.0078C198.947 30.332 197.822 31.293 196.122 31.293H193.697L194.517 27.3789ZM192.173 38.4531L193.099 34.0703H195.689C197.283 34.0703 198.103 34.7617 198.103 35.9102C198.103 37.4336 196.908 38.4531 195.056 38.4531H192.173ZM214.878 41.5H219.085L222.683 24.5898H218.569L209.464 35.0547H209.241L211.48 24.5898H207.272L203.675 41.5H207.8L216.894 31.0469H217.116L214.878 41.5ZM235.684 31.082H239.868C239.891 30.918 239.915 30.6953 239.915 30.4258C239.856 26.8281 236.985 24.2969 233.001 24.2969C227.2 24.2969 223.403 28.4336 223.403 34.6328C223.403 38.9805 226.298 41.793 230.762 41.793C235.052 41.793 238.356 39.2266 239.012 35.3945H234.829C234.266 37.1523 232.825 38.2422 231.032 38.2422C229.04 38.2422 227.821 36.7773 227.821 34.3867C227.821 30.5547 229.79 27.8125 232.591 27.8125C234.313 27.8125 235.637 28.9961 235.684 30.6484C235.696 30.9414 235.696 31.0117 235.684 31.082Z" />
<path d="M152.57 31.082L152.373 31.0492L152.334 31.282H152.57V31.082ZM156.754 31.082V31.282H156.927L156.952 31.1103L156.754 31.082ZM156.801 30.4258H157.001L157.001 30.4225L156.801 30.4258ZM155.898 35.3945L156.096 35.4283L156.136 35.1945H155.898V35.3945ZM151.715 35.3945V35.1945H151.569L151.524 35.3336L151.715 35.3945ZM152.57 30.6484L152.37 30.6541L152.37 30.6564L152.57 30.6484ZM152.57 31.282H156.754V30.882H152.57V31.282ZM156.952 31.1103C156.976 30.9394 157.001 30.707 157.001 30.4258H156.601C156.601 30.6836 156.578 30.8966 156.556 31.0537L156.952 31.1103ZM157.001 30.4225C156.94 26.6965 153.96 24.0969 149.887 24.0969V24.4969C153.782 24.4969 156.544 26.9598 156.601 30.429L157.001 30.4225ZM149.887 24.0969C146.936 24.0969 144.482 25.1502 142.766 27.0043C141.051 28.8569 140.089 31.4926 140.089 34.6328H140.489C140.489 31.5738 141.425 29.0415 143.059 27.276C144.692 25.5119 147.036 24.4969 149.887 24.4969V24.0969ZM140.089 34.6328C140.089 36.8523 140.829 38.6969 142.155 39.9866C143.48 41.2758 145.374 41.993 147.648 41.993V41.593C145.458 41.593 143.672 40.9039 142.434 39.6999C141.196 38.4964 140.489 36.761 140.489 34.6328H140.089ZM147.648 41.993C152.02 41.993 155.421 39.37 156.096 35.4283L155.701 35.3608C155.064 39.0831 151.855 41.593 147.648 41.593V41.993ZM155.898 35.1945H151.715V35.5945H155.898V35.1945ZM151.524 35.3336C150.987 37.013 149.619 38.0422 147.918 38.0422V38.4422C149.802 38.4422 151.318 37.2917 151.905 35.4555L151.524 35.3336ZM147.918 38.0422C146.975 38.0422 146.231 37.6977 145.719 37.083C145.204 36.4639 144.907 35.5502 144.907 34.3867H144.507C144.507 35.6139 144.82 36.6279 145.412 37.3389C146.007 38.0543 146.869 38.4422 147.918 38.4422V38.0422ZM144.907 34.3867C144.907 32.5028 145.391 30.903 146.204 29.7798C147.013 28.66 148.149 28.0125 149.477 28.0125V27.6125C148.004 27.6125 146.754 28.3361 145.879 29.5454C145.007 30.7513 144.507 32.4386 144.507 34.3867H144.907ZM149.477 28.0125C151.103 28.0125 152.327 29.122 152.37 30.6541L152.77 30.6428C152.72 28.8702 151.295 27.6125 149.477 27.6125V28.0125ZM152.37 30.6564C152.383 30.9576 152.381 31.0038 152.373 31.0492L152.768 31.1149C152.783 31.0196 152.782 30.9252 152.77 30.6404L152.37 30.6564ZM169.404 38.043L169.6 38.0841L169.65 37.843H169.404V38.043ZM162.127 38.043L161.931 38.0012L161.879 38.243H162.127V38.043ZM162.865 34.5859V34.3859H162.703L162.669 34.5442L162.865 34.5859ZM169.709 34.5859V34.7859H169.871L169.904 34.6272L169.709 34.5859ZM170.377 31.4219L170.572 31.4632L170.623 31.2219H170.377V31.4219ZM163.533 31.4219L163.337 31.3804L163.286 31.6219H163.533V31.4219ZM164.248 28.0469V27.8469H164.086L164.052 28.0054L164.248 28.0469ZM171.525 28.0469V28.2469H171.687L171.721 28.0886L171.525 28.0469ZM172.263 24.5898L172.459 24.6316L172.511 24.3898H172.263V24.5898ZM160.685 24.5898V24.3898H160.523L160.49 24.5482L160.685 24.5898ZM157.088 41.5L156.892 41.4584L156.841 41.7H157.088V41.5ZM168.677 41.5V41.7H168.84L168.873 41.5411L168.677 41.5ZM169.404 37.843H162.127V38.243H169.404V37.843ZM162.322 38.0847L163.061 34.6277L162.669 34.5442L161.931 38.0012L162.322 38.0847ZM162.865 34.7859H169.709V34.3859H162.865V34.7859ZM169.904 34.6272L170.572 31.4632L170.181 31.3806L169.513 34.5446L169.904 34.6272ZM170.377 31.2219H163.533V31.6219H170.377V31.2219ZM163.729 31.4633L164.443 28.0883L164.052 28.0054L163.337 31.3804L163.729 31.4633ZM164.248 28.2469H171.525V27.8469H164.248V28.2469ZM171.721 28.0886L172.459 24.6316L172.068 24.5481L171.33 28.0051L171.721 28.0886ZM172.263 24.3898H160.685V24.7898H172.263V24.3898ZM160.49 24.5482L156.892 41.4584L157.283 41.5416L160.881 24.6315L160.49 24.5482ZM157.088 41.7H168.677V41.3H157.088V41.7ZM168.873 41.5411L169.6 38.0841L169.208 38.0018L168.482 41.4589L168.873 41.5411ZM175.011 24.5898V24.3898H174.849L174.816 24.5484L175.011 24.5898ZM171.425 41.5L171.23 41.4585L171.178 41.7H171.425V41.5ZM175.726 41.5V41.7H175.888L175.922 41.5416L175.726 41.5ZM176.781 36.543V36.343H176.619L176.585 36.5013L176.781 36.543ZM178.609 27.8945V27.6945H178.447L178.413 27.8529L178.609 27.8945ZM177.46 33.2969L177.265 33.2553L177.213 33.4969H177.46V33.2969ZM174.816 24.5484L171.23 41.4585L171.621 41.5415L175.207 24.6313L174.816 24.5484ZM171.425 41.7H175.726V41.3H171.425V41.7ZM175.922 41.5416L176.976 36.5846L176.585 36.5013L175.53 41.4584L175.922 41.5416ZM176.781 36.743H179.582V36.343H176.781V36.743ZM179.582 36.743C181.933 36.743 183.894 36.076 185.271 34.8511C186.65 33.6238 187.422 31.853 187.422 29.6875H187.022C187.022 31.7524 186.289 33.4094 185.005 34.5523C183.718 35.6974 181.859 36.343 179.582 36.343V36.743ZM187.422 29.6875C187.422 28.101 186.845 26.7695 185.781 25.8369C184.719 24.9067 183.191 24.3898 181.316 24.3898V24.7898C183.12 24.7898 184.546 25.2867 185.517 26.1377C186.486 26.9864 187.022 28.2036 187.022 29.6875H187.422ZM181.316 24.3898H175.011V24.7898H181.316V24.3898ZM178.609 28.0945H180.425V27.6945H178.609V28.0945ZM180.425 28.0945C181.183 28.0945 181.747 28.2702 182.12 28.591C182.487 28.9074 182.698 29.3908 182.698 30.0742H183.098C183.098 29.3046 182.857 28.698 182.381 28.2879C181.91 27.8821 181.238 27.6945 180.425 27.6945V28.0945ZM182.698 30.0742C182.698 30.9766 182.39 31.7287 181.855 32.255C181.321 32.7813 180.545 33.0969 179.582 33.0969V33.4969C180.634 33.4969 181.516 33.1503 182.136 32.54C182.756 31.9295 183.098 31.0703 183.098 30.0742H182.698ZM179.582 33.0969H177.46V33.4969H179.582V33.0969ZM177.656 33.3385L178.805 27.9361L178.413 27.8529L177.265 33.2553L177.656 33.3385ZM199.322 32.6875L199.124 32.6592L199.097 32.844L199.28 32.8831L199.322 32.6875ZM199.333 32.6055L199.294 32.4094L199.155 32.4371L199.135 32.5772L199.333 32.6055ZM190.908 24.5898V24.3898H190.746L190.712 24.5482L190.908 24.5898ZM187.31 41.5L187.114 41.4584L187.063 41.7H187.31V41.5ZM194.517 27.3789V27.1789H194.354L194.321 27.3379L194.517 27.3789ZM193.697 31.293L193.501 31.2519L193.45 31.493H193.697V31.293ZM192.173 38.4531L191.977 38.4118L191.926 38.6531H192.173V38.4531ZM193.099 34.0703V33.8703H192.937L192.903 34.029L193.099 34.0703ZM196.04 41.7C199.833 41.7 202.604 39.3901 202.604 36.1094H202.204C202.204 39.1099 199.677 41.3 196.04 41.3V41.7ZM202.604 36.1094C202.604 34.2591 201.238 32.8935 199.363 32.4919L199.28 32.8831C201.015 33.2549 202.204 34.4909 202.204 36.1094H202.604ZM199.52 32.7158L199.531 32.6338L199.135 32.5772L199.124 32.6592L199.52 32.7158ZM199.373 32.8016C201.733 32.3296 203.447 30.5741 203.447 28.2227H203.047C203.047 30.3478 201.504 31.9673 199.294 32.4094L199.373 32.8016ZM203.447 28.2227C203.447 27.1246 202.986 26.1579 202.103 25.4706C201.225 24.7867 199.944 24.3898 198.314 24.3898V24.7898C199.883 24.7898 201.069 25.1722 201.857 25.7862C202.642 26.3968 203.047 27.2465 203.047 28.2227H203.447ZM198.314 24.3898H190.908V24.7898H198.314V24.3898ZM190.712 24.5482L187.114 41.4584L187.505 41.5416L191.103 24.6315L190.712 24.5482ZM187.31 41.7H196.04V41.3H187.31V41.7ZM194.517 27.5789H196.79V27.1789H194.517V27.5789ZM196.79 27.5789C197.473 27.5789 197.963 27.7317 198.277 27.9774C198.585 28.2179 198.747 28.564 198.747 29.0078H199.147C199.147 28.4555 198.939 27.9871 198.523 27.6622C198.114 27.3426 197.526 27.1789 196.79 27.1789V27.5789ZM198.747 29.0078C198.747 29.6088 198.493 30.1239 198.045 30.4925C197.594 30.8632 196.935 31.093 196.122 31.093V31.493C197.009 31.493 197.762 31.2423 198.299 30.8015C198.838 30.3585 199.147 29.731 199.147 29.0078H198.747ZM196.122 31.093H193.697V31.493H196.122V31.093ZM193.892 31.334L194.713 27.4199L194.321 27.3379L193.501 31.2519L193.892 31.334ZM192.369 38.4945L193.295 34.1116L192.903 34.029L191.977 38.4118L192.369 38.4945ZM193.099 34.2703H195.689V33.8703H193.099V34.2703ZM195.689 34.2703C196.461 34.2703 197.014 34.4382 197.37 34.7171C197.719 34.9901 197.903 35.3881 197.903 35.9102H198.303C198.303 35.2838 198.076 34.7618 197.617 34.4021C197.164 34.0481 196.511 33.8703 195.689 33.8703V34.2703ZM197.903 35.9102C197.903 36.6155 197.628 37.1942 197.145 37.5998C196.659 38.0081 195.946 38.2531 195.056 38.2531V38.6531C196.017 38.6531 196.828 38.3884 197.402 37.9061C197.98 37.4211 198.303 36.7283 198.303 35.9102H197.903ZM195.056 38.2531H192.173V38.6531H195.056V38.2531ZM214.878 41.5L214.682 41.4581L214.631 41.7H214.878V41.5ZM219.085 41.5V41.7H219.247L219.281 41.5416L219.085 41.5ZM222.683 24.5898L222.878 24.6315L222.93 24.3898H222.683V24.5898ZM218.569 24.5898V24.3898H218.478L218.418 24.4586L218.569 24.5898ZM209.464 35.0547V35.2547H209.555L209.615 35.186L209.464 35.0547ZM209.241 35.0547L209.046 35.0129L208.994 35.2547H209.241V35.0547ZM211.48 24.5898L211.675 24.6317L211.727 24.3898H211.48V24.5898ZM207.272 24.5898V24.3898H207.111L207.077 24.5482L207.272 24.5898ZM203.675 41.5L203.479 41.4584L203.428 41.7H203.675V41.5ZM207.8 41.5V41.7H207.891L207.951 41.6313L207.8 41.5ZM216.894 31.0469V30.8469H216.802L216.743 30.9156L216.894 31.0469ZM217.116 31.0469L217.312 31.0888L217.364 30.8469H217.116V31.0469ZM214.878 41.7H219.085V41.3H214.878V41.7ZM219.281 41.5416L222.878 24.6315L222.487 24.5482L218.889 41.4584L219.281 41.5416ZM222.683 24.3898H218.569V24.7898H222.683V24.3898ZM218.418 24.4586L209.313 34.9234L209.615 35.186L218.72 24.7211L218.418 24.4586ZM209.464 34.8547H209.241V35.2547H209.464V34.8547ZM209.437 35.0965L211.675 24.6317L211.284 24.548L209.046 35.0129L209.437 35.0965ZM211.48 24.3898H207.272V24.7898H211.48V24.3898ZM207.077 24.5482L203.479 41.4584L203.87 41.5416L207.468 24.6315L207.077 24.5482ZM203.675 41.7H207.8V41.3H203.675V41.7ZM207.951 41.6313L217.044 31.1781L216.743 30.9156L207.649 41.3687L207.951 41.6313ZM216.894 31.2469H217.116V30.8469H216.894V31.2469ZM216.921 31.005L214.682 41.4581L215.074 41.5419L217.312 31.0888L216.921 31.005ZM235.684 31.082L235.487 31.0492L235.448 31.282H235.684V31.082ZM239.868 31.082V31.282H240.041L240.066 31.1103L239.868 31.082ZM239.915 30.4258H240.115L240.115 30.4225L239.915 30.4258ZM239.012 35.3945L239.21 35.4283L239.25 35.1945H239.012V35.3945ZM234.829 35.3945V35.1945H234.683L234.638 35.3336L234.829 35.3945ZM235.684 30.6484L235.484 30.6541L235.485 30.6564L235.684 30.6484ZM235.684 31.282H239.868V30.882H235.684V31.282ZM240.066 31.1103C240.09 30.9394 240.115 30.707 240.115 30.4258H239.715C239.715 30.6836 239.692 30.8966 239.67 31.0537L240.066 31.1103ZM240.115 30.4225C240.054 26.6965 237.074 24.0969 233.001 24.0969V24.4969C236.896 24.4969 239.658 26.9598 239.715 30.429L240.115 30.4225ZM233.001 24.0969C230.051 24.0969 227.596 25.1502 225.88 27.0043C224.165 28.8569 223.203 31.4926 223.203 34.6328H223.603C223.603 31.5738 224.539 29.0415 226.173 27.276C227.806 25.5119 230.15 24.4969 233.001 24.4969V24.0969ZM223.203 34.6328C223.203 36.8523 223.943 38.6969 225.269 39.9866C226.595 41.2758 228.488 41.993 230.762 41.993V41.593C228.572 41.593 226.786 40.9039 225.548 39.6999C224.311 38.4964 223.603 36.761 223.603 34.6328H223.203ZM230.762 41.993C235.134 41.993 238.535 39.37 239.21 35.4283L238.815 35.3608C238.178 39.0831 234.969 41.593 230.762 41.593V41.993ZM239.012 35.1945H234.829V35.5945H239.012V35.1945ZM234.638 35.3336C234.101 37.013 232.733 38.0422 231.032 38.0422V38.4422C232.917 38.4422 234.432 37.2917 235.019 35.4555L234.638 35.3336ZM231.032 38.0422C230.089 38.0422 229.345 37.6977 228.833 37.083C228.318 36.4639 228.021 35.5502 228.021 34.3867H227.621C227.621 35.6139 227.934 36.6279 228.526 37.3389C229.121 38.0543 229.983 38.4422 231.032 38.4422V38.0422ZM228.021 34.3867C228.021 32.5028 228.505 30.903 229.318 29.7798C230.128 28.66 231.263 28.0125 232.591 28.0125V27.6125C231.118 27.6125 229.868 28.3361 228.994 29.5454C228.121 30.7513 227.621 32.4386 227.621 34.3867H228.021ZM232.591 28.0125C234.218 28.0125 235.441 29.122 235.484 30.6541L235.884 30.6428C235.834 28.8702 234.409 27.6125 232.591 27.6125V28.0125ZM235.485 30.6564C235.497 30.9576 235.495 31.0038 235.487 31.0492L235.882 31.1149C235.898 31.0196 235.896 30.9252 235.884 30.6404L235.485 30.6564Z"/>
</svg>
