<?xml version="1.0" encoding="UTF-8" standalone="no"?>
<svg
   xmlns:dc="http://purl.org/dc/elements/1.1/"
   xmlns:cc="http://creativecommons.org/ns#"
   xmlns:rdf="http://www.w3.org/1999/02/22-rdf-syntax-ns#"
   xmlns:svg="http://www.w3.org/2000/svg"
   xmlns="http://www.w3.org/2000/svg"
   height="512pt"
   viewBox="0 0 512 512"
   width="512pt"
   version="1.1"
   id="svg6">
  <metadata
     id="metadata12">
    <rdf:RDF>
      <cc:Work
         rdf:about="">
        <dc:format>image/svg+xml</dc:format>
        <dc:type
           rdf:resource="http://purl.org/dc/dcmitype/StillImage" />
        <dc:title></dc:title>
      </cc:Work>
    </rdf:RDF>
  </metadata>
  <defs
     id="defs10" />
  <path
     id="path2"
     style="stroke-width:1.33333"
     d="M 341.33398 0 C 152.84961 0 0 152.84961 0 341.33398 C 0 529.81836 152.84961 682.66602 341.33398 682.66602 C 529.81836 682.66602 682.66602 529.81836 682.66602 341.33398 C 682.66602 152.84961 529.81836 0 341.33398 0 z M 339.2832 117.89062 C 359.75571 117.89469 380.45835 118.61001 391.99023 120.03516 C 463.38404 128.85847 502.00255 143.44892 531.54688 172.76367 C 551.42858 192.49095 561.28178 210.91128 569.15234 243.06836 C 576.14432 271.63613 578.88259 293.50295 579.75391 327.73047 C 581.37736 391.50208 573.68788 437.35404 554.79102 476.58008 C 530.64429 526.70388 486.61765 549.82701 404.16406 555.69141 C 383.72284 557.14527 341.33817 559.00278 328.26172 559.01758 L 318.20703 559.0293 L 278.18555 598.87109 L 238.16406 638.71094 L 227.64844 638.71094 L 217.13281 638.71094 L 217.13281 591.8125 C 217.13281 555.62303 216.81748 544.66094 215.75 543.80469 C 214.98915 543.19438 207.25752 540.08046 198.56836 536.88477 C 176.09093 528.61801 165.47142 521.82495 150.69531 506.26953 C 133.79095 488.47365 122.653 466.98032 114.75977 436.91992 C 101.90858 387.97757 100.91933 336.29705 111.52734 268.12891 C 117.69972 228.46459 125.33282 209.04014 143.75977 186.11328 C 172.41097 150.46547 218.56598 129.3092 287.96289 120.01367 C 298.56991 118.59288 318.8107 117.88656 339.2832 117.89062 z M 339.34961 139.9668 C 331.80368 139.94152 324.5038 140.13649 317.60352 140.56641 C 229.12862 146.0787 171.97556 172.90039 148.09375 220.11914 C 140.77931 234.58111 135.40945 258.22254 130.0625 299.50977 C 127.20356 321.58546 127.18058 380.37219 130.02344 398.00586 C 137.72796 445.79663 149.83706 474.50571 170.51562 494 C 182.62971 505.42029 186.24281 507.42701 213.63672 517.94922 C 227.61851 523.31974 232.97299 526.90729 236.84766 533.49805 L 239.82227 538.55664 L 240.16016 570.95898 L 240.49805 603.36133 L 258.19531 586.48633 C 267.92883 577.20415 281.96191 563.16348 289.38086 555.28711 C 306.14607 537.48818 307.45988 536.81469 326.58203 536.19727 C 395.24001 533.98037 424.14519 531.86717 445.80078 527.48242 C 480.63929 520.42842 507.19153 506.37392 521.97461 487.16211 C 537.00009 467.6354 549.57067 432.08357 554.2793 395.79297 C 557.2057 373.23862 557.21913 307.98756 554.30273 287.33594 C 551.85416 270.00023 547.80641 250.21733 544.06445 237.30469 C 532.49584 197.38397 505.71015 172.0004 459.07812 156.76562 C 428.03063 146.62241 380.09764 140.10329 339.34961 139.9668 z M 353.95508 196.4375 C 358.48034 196.40717 363.08535 196.61852 367.47656 197.10742 C 410.01251 201.84328 445.82453 226.56304 464.5 264.07812 C 477.06303 289.31434 480.83243 315.02555 475.86133 341.56445 C 473.64599 353.39129 465.94044 358.30519 457.5918 353.21484 C 452.84802 350.3224 452.29722 347.34318 453.98047 333.69922 C 459.45927 289.29122 438.26394 248.92668 399.42969 229.81055 C 380.84627 220.66289 362.93184 217.80122 340.45117 220.39062 C 326.03121 222.05156 323.45952 221.46758 320.56445 215.86914 C 318.12843 211.15837 319.2337 205.77581 323.34961 202.3125 C 327.5246 198.79948 340.37929 196.5285 353.95508 196.4375 z M 241.00195 219.41016 C 247.92653 219.28176 253.24459 222.29147 260.25391 229.30078 C 272.90325 241.95015 284.47744 257.81353 293.14453 274.38281 C 297.60065 282.90177 298.10309 284.58985 297.68555 289.625 C 297.10135 296.66971 294.53606 300.3879 285.19531 307.72852 C 274.80625 315.89297 271.91361 320.74307 271.91797 329.99609 C 271.92064 336.69845 272.47035 338.49591 277.75781 349.13281 C 291.11689 376.00771 310.07045 394.38262 339.05078 408.55469 C 357.98202 417.81249 364.59549 416.21458 376.87695 399.41406 C 380.63858 394.2683 387.69261 390.09686 394.20508 389.16797 C 400.91478 388.21093 410.99369 391.45038 419.60742 397.33008 C 431.29078 405.30501 455.94751 423.95151 459.48047 427.48438 C 468.06491 436.06882 468.86888 444.6251 462.33398 457.84766 C 451.44721 479.87562 424.65827 495.307 406.37695 490.08008 C 399.02319 487.97749 377.66074 478.07608 361.42383 469.24609 C 331.11333 452.7626 305.57935 433.87011 280.95508 409.70703 C 259.20632 388.36564 244.3778 369.90301 228.30078 344.14453 C 213.26183 320.04918 196.25306 280.77004 195.2793 267.88672 C 193.71866 247.23842 207.95132 228.34187 230.25391 221.44922 C 234.37516 220.17554 237.85442 219.46852 241.00195 219.41016 z M 352.89844 230.55859 C 361.41387 230.5539 371.56737 231.70269 378.65234 233.69141 C 394.88373 238.24743 407.86869 246.19461 419.875 258.92188 C 436.64891 276.70321 444.44311 297.23262 443.89648 322.19727 C 443.6934 331.47339 444.03346 334.57033 445.58203 337.54883 C 450.70328 347.39866 440.16866 357.91882 430.08398 353.02539 C 427.48201 351.76284 424.08594 346.5651 424.08594 343.8457 C 424.08594 342.853 423.36694 340.93795 422.49023 339.58984 C 421.30002 337.75992 420.91413 333.49087 420.96289 322.75 C 421.01942 310.15933 420.66624 307.24786 418.14062 299.42383 C 414.50818 288.17137 408.73655 279.22824 399.625 270.73633 C 386.30971 258.32655 371.46222 253.20085 350.49805 253.77734 C 336.67294 254.15753 333.68085 253.11739 331.16797 247.05078 C 328.09654 239.63569 332.87972 233.12797 342.74219 231.30859 C 345.4947 230.80083 349.02778 230.56073 352.89844 230.55859 z M 355.10742 264.67578 C 383.86806 264.79645 409.11484 289.57188 409.97266 318.51758 C 410.15731 324.74834 409.86284 325.77655 407.06836 328.69336 C 403.52015 332.39691 400.64582 333.23131 395.77344 331.96875 C 390.4472 330.58859 388.37126 327.42119 387.37695 319.16211 C 385.14494 300.62191 373.83887 289.67082 354.37695 287.19922 C 346.28631 286.17177 342.18945 282.31232 342.18945 275.7168 C 342.18945 272.11145 342.88675 270.42183 345.42383 267.88477 C 348.26833 265.04026 349.43714 264.65198 355.10742 264.67578 z "
     transform="scale(0.74999998)" />
</svg>
